<svg version="1.1" viewBox="0.0 0.0 1599.3018372703411 544.3438320209974" fill="none" stroke="none" stroke-linecap="square" stroke-miterlimit="10" xmlns:xlink="http://www.w3.org/1999/xlink" xmlns="http://www.w3.org/2000/svg"><clipPath id="p.0"><path d="m0 0l1599.3019 0l0 544.3438l-1599.3019 0l0 -544.3438z" clip-rule="nonzero"/></clipPath><g clip-path="url(#p.0)"><path fill="#000000" fill-opacity="0.0" d="m0 0l1599.3019 0l0 544.3438l-1599.3019 0z" fill-rule="evenodd"/><path fill="#000000" fill-opacity="0.0" d="m1352.0 141.22348l0 0c0 -10.616837 8.606689 -19.22348 19.22351 -19.22348l176.26172 0c5.0983887 0 9.987915 2.025322 13.593018 5.6304245c3.6051025 3.6051102 5.630371 8.494667 5.630371 13.593056l0 76.89162c0 10.616837 -8.606567 19.22348 -19.223389 19.22348l-176.26172 0c-10.616821 0 -19.22351 -8.606644 -19.22351 -19.22348z" fill-rule="evenodd"/><path stroke="#000000" stroke-width="1.0" stroke-linejoin="round" stroke-linecap="butt" d="m1352.0 141.22348l0 0c0 -10.616837 8.606689 -19.22348 19.22351 -19.22348l176.26172 0c5.0983887 0 9.987915 2.025322 13.593018 5.6304245c3.6051025 3.6051102 5.630371 8.494667 5.630371 13.593056l0 76.89162c0 10.616837 -8.606567 19.22348 -19.223389 19.22348l-176.26172 0c-10.616821 0 -19.22351 -8.606644 -19.22351 -19.22348z" fill-rule="evenodd"/><path fill="#000000" fill-opacity="0.0" d="m141.39896 340.87192l0 0c0 -14.351013 11.633774 -25.984772 25.984772 -25.984772l296.66037 0c6.8916016 0 13.500916 2.737671 18.374023 7.6107483c4.8730774 4.873108 7.6107483 11.482422 7.6107483 18.374023l0 103.935974c0 14.350983 -11.633789 25.984772 -25.984772 25.984772l-296.66037 0c-14.350998 0 -25.984772 -11.633789 -25.984772 -25.984772z" fill-rule="evenodd"/><path stroke="#000000" stroke-width="1.0" stroke-linejoin="round" stroke-linecap="butt" stroke-dasharray="8.0,3.0" d="m141.39896 340.87192l0 0c0 -14.351013 11.633774 -25.984772 25.984772 -25.984772l296.66037 0c6.8916016 0 13.500916 2.737671 18.374023 7.6107483c4.8730774 4.873108 7.6107483 11.482422 7.6107483 18.374023l0 103.935974c0 14.350983 -11.633789 25.984772 -25.984772 25.984772l-296.66037 0c-14.350998 0 -25.984772 -11.633789 -25.984772 -25.984772z" fill-rule="evenodd"/><path fill="#000000" fill-opacity="0.0" d="m142.35695 157.02419l0 0c0 -15.554153 12.609146 -28.1633 28.1633 -28.1633l288.6183 0c7.4693604 0 14.6328125 2.9672089 19.91446 8.24884c5.2816467 5.2816467 8.24884 12.445084 8.24884 19.91446l0 112.649796c0 15.554169 -12.609161 28.1633 -28.1633 28.1633l-288.6183 0l0 0c-15.554153 0 -28.1633 -12.609131 -28.1633 -28.1633z" fill-rule="evenodd"/><path stroke="#000000" stroke-width="1.0" stroke-linejoin="round" stroke-linecap="butt" stroke-dasharray="8.0,3.0" d="m142.35695 157.02419l0 0c0 -15.554153 12.609146 -28.1633 28.1633 -28.1633l288.6183 0c7.4693604 0 14.6328125 2.9672089 19.91446 8.24884c5.2816467 5.2816467 8.24884 12.445084 8.24884 19.91446l0 112.649796c0 15.554169 -12.609161 28.1633 -28.1633 28.1633l-288.6183 0l0 0c-15.554153 0 -28.1633 -12.609131 -28.1633 -28.1633z" fill-rule="evenodd"/><path fill="#000000" fill-opacity="0.0" d="m826.4383 145.00525l96.8504 0l0 42.015747l-96.8504 0z" fill-rule="evenodd"/><path fill="#e06666" d="m836.90704 171.92525l0 -13.359375l9.65625 0l0 1.578125l-7.875 0l0 4.09375l7.375 0l0 1.5625l-7.375 0l0 4.546875l8.1875 0l0 1.578125l-9.96875 0zm12.2092285 0l0 -9.671875l1.46875 0l0 1.375q1.0625 -1.59375 3.078125 -1.59375q0.875 0 1.609375 0.3125q0.734375 0.3125 1.09375 0.828125q0.375 0.5 0.515625 1.203125q0.09375 0.453125 0.09375 1.59375l0 5.953125l-1.640625 0l0 -5.890625q0 -1.0 -0.203125 -1.484375q-0.1875 -0.5 -0.671875 -0.796875q-0.484375 -0.296875 -1.140625 -0.296875q-1.046875 0 -1.8125 0.671875q-0.75 0.65625 -0.75 2.515625l0 5.28125l-1.640625 0zm13.953857 -1.46875l0.234375 1.453125q-0.6875 0.140625 -1.234375 0.140625q-0.890625 0 -1.390625 -0.28125q-0.484375 -0.28125 -0.6875 -0.734375q-0.203125 -0.46875 -0.203125 -1.9375l0 -5.578125l-1.203125 0l0 -1.265625l1.203125 0l0 -2.390625l1.625 -0.984375l0 3.375l1.65625 0l0 1.265625l-1.65625 0l0 5.671875q0 0.6875 0.078125 0.890625q0.09375 0.203125 0.28125 0.328125q0.203125 0.109375 0.578125 0.109375q0.265625 0 0.71875 -0.0625zm1.6051636 -10.0l0 -1.890625l1.640625 0l0 1.890625l-1.640625 0zm0 11.46875l0 -9.671875l1.640625 0l0 9.671875l-1.640625 0zm7.7229614 -1.46875l0.234375 1.453125q-0.6875 0.140625 -1.234375 0.140625q-0.890625 0 -1.390625 -0.28125q-0.484375 -0.28125 -0.6875 -0.734375q-0.203125 -0.46875 -0.203125 -1.9375l0 -5.578125l-1.203125 0l0 -1.265625l1.203125 0l0 -2.390625l1.625 -0.984375l0 3.375l1.65625 0l0 1.265625l-1.65625 0l0 5.671875q0 0.6875 0.078125 0.890625q0.09375 0.203125 0.28125 0.328125q0.203125 0.109375 0.578125 0.109375q0.265625 0 0.71875 -0.0625zm1.5270386 5.1875l-0.1875 -1.53125q0.546875 0.140625 0.9375 0.140625q0.546875 0 0.875 -0.1875q0.328125 -0.171875 0.546875 -0.5q0.15625 -0.25 0.5 -1.21875q0.046875 -0.140625 0.140625 -0.40625l-3.671875 -9.6875l1.765625 0l2.015625 5.59375q0.390625 1.078125 0.703125 2.25q0.28125 -1.125 0.671875 -2.203125l2.078125 -5.640625l1.640625 0l-3.6875 9.828125q-0.59375 1.609375 -0.921875 2.203125q-0.4375 0.8125 -1.0 1.1875q-0.5625 0.375 -1.34375 0.375q-0.484375 0 -1.0625 -0.203125zm20.308289 -3.71875l-1.640625 0l0 -10.453125q-0.59375 0.5625 -1.5625 1.140625q-0.953125 0.5625 -1.71875 0.84375l0 -1.59375q1.375 -0.640625 2.40625 -1.5625q1.03125 -0.921875 1.453125 -1.78125l1.0625 0l0 13.40625z" fill-rule="nonzero"/><path fill="#000000" fill-opacity="0.0" d="m826.4383 235.9825l96.8504 0l0 42.015762l-96.8504 0z" fill-rule="evenodd"/><path fill="#93c47d" d="m836.90704 262.9025l0 -13.359375l9.65625 0l0 1.578125l-7.875 0l0 4.09375l7.375 0l0 1.5625l-7.375 0l0 4.546875l8.1875 0l0 1.578125l-9.96875 0zm12.2092285 0l0 -9.671875l1.46875 0l0 1.375q1.0625 -1.59375 3.078125 -1.59375q0.875 0 1.609375 0.3125q0.734375 0.3125 1.09375 0.828125q0.375 0.5 0.515625 1.203125q0.09375 0.453125 0.09375 1.59375l0 5.953125l-1.640625 0l0 -5.890625q0 -1.0 -0.203125 -1.484375q-0.1875 -0.5 -0.671875 -0.796875q-0.484375 -0.296875 -1.140625 -0.296875q-1.046875 0 -1.8125 0.671875q-0.75 0.65625 -0.75 2.515625l0 5.28125l-1.640625 0zm13.953857 -1.46875l0.234375 1.453125q-0.6875 0.140625 -1.234375 0.140625q-0.890625 0 -1.390625 -0.28125q-0.484375 -0.28125 -0.6875 -0.734375q-0.203125 -0.46875 -0.203125 -1.9375l0 -5.578125l-1.203125 0l0 -1.265625l1.203125 0l0 -2.390625l1.625 -0.984375l0 3.375l1.65625 0l0 1.265625l-1.65625 0l0 5.671875q0 0.6875 0.078125 0.890625q0.09375 0.203125 0.28125 0.328125q0.203125 0.109375 0.578125 0.109375q0.265625 0 0.71875 -0.0625zm1.6051636 -10.0l0 -1.890625l1.640625 0l0 1.890625l-1.640625 0zm0 11.46875l0 -9.671875l1.640625 0l0 9.671875l-1.640625 0zm7.7229614 -1.46875l0.234375 1.453125q-0.6875 0.140625 -1.234375 0.140625q-0.890625 0 -1.390625 -0.28125q-0.484375 -0.28125 -0.6875 -0.734375q-0.203125 -0.46875 -0.203125 -1.9375l0 -5.578125l-1.203125 0l0 -1.265625l1.203125 0l0 -2.390625l1.625 -0.984375l0 3.375l1.65625 0l0 1.265625l-1.65625 0l0 5.671875q0 0.6875 0.078125 0.890625q0.09375 0.203125 0.28125 0.328125q0.203125 0.109375 0.578125 0.109375q0.265625 0 0.71875 -0.0625zm1.5270386 5.1875l-0.1875 -1.53125q0.546875 0.140625 0.9375 0.140625q0.546875 0 0.875 -0.1875q0.328125 -0.171875 0.546875 -0.5q0.15625 -0.25 0.5 -1.21875q0.046875 -0.140625 0.140625 -0.40625l-3.671875 -9.6875l1.765625 0l2.015625 5.59375q0.390625 1.078125 0.703125 2.25q0.28125 -1.125 0.671875 -2.203125l2.078125 -5.640625l1.640625 0l-3.6875 9.828125q-0.59375 1.609375 -0.921875 2.203125q-0.4375 0.8125 -1.0 1.1875q-0.5625 0.375 -1.34375 0.375q-0.484375 0 -1.0625 -0.203125zm22.745789 -5.296875l0 1.578125l-8.828125 0q-0.015625 -0.59375 0.1875 -1.140625q0.34375 -0.90625 1.078125 -1.78125q0.75 -0.875 2.15625 -2.015625q2.171875 -1.78125 2.9375 -2.828125q0.765625 -1.046875 0.765625 -1.96875q0 -0.984375 -0.703125 -1.640625q-0.6875 -0.671875 -1.8125 -0.671875q-1.1875 0 -1.90625 0.71875q-0.703125 0.703125 -0.703125 1.953125l-1.6875 -0.171875q0.171875 -1.890625 1.296875 -2.875q1.140625 -0.984375 3.03125 -0.984375q1.921875 0 3.046875 1.0625q1.125 1.0625 1.125 2.640625q0 0.796875 -0.328125 1.578125q-0.328125 0.78125 -1.09375 1.640625q-0.75 0.84375 -2.53125 2.34375q-1.46875 1.234375 -1.890625 1.6875q-0.421875 0.4375 -0.6875 0.875l6.546875 0z" fill-rule="nonzero"/><path fill="#000000" fill-opacity="0.0" d="m826.4383 326.95975l96.8504 0l0 42.015747l-96.8504 0z" fill-rule="evenodd"/><path fill="#3d85c6" d="m836.90704 353.87976l0 -13.359375l9.65625 0l0 1.578125l-7.875 0l0 4.09375l7.375 0l0 1.5625l-7.375 0l0 4.546875l8.1875 0l0 1.578125l-9.96875 0zm12.2092285 0l0 -9.671875l1.46875 0l0 1.375q1.0625 -1.59375 3.078125 -1.59375q0.875 0 1.609375 0.3125q0.734375 0.3125 1.09375 0.828125q0.375 0.5 0.515625 1.203125q0.09375 0.453125 0.09375 1.59375l0 5.953125l-1.640625 0l0 -5.890625q0 -1.0 -0.203125 -1.484375q-0.1875 -0.5 -0.671875 -0.796875q-0.484375 -0.296875 -1.140625 -0.296875q-1.046875 0 -1.8125 0.671875q-0.75 0.65625 -0.75 2.515625l0 5.28125l-1.640625 0zm13.953857 -1.46875l0.234375 1.453125q-0.6875 0.140625 -1.234375 0.140625q-0.890625 0 -1.390625 -0.28125q-0.484375 -0.28125 -0.6875 -0.734375q-0.203125 -0.46875 -0.203125 -1.9375l0 -5.578125l-1.203125 0l0 -1.265625l1.203125 0l0 -2.390625l1.625 -0.984375l0 3.375l1.65625 0l0 1.265625l-1.65625 0l0 5.671875q0 0.6875 0.078125 0.890625q0.09375 0.203125 0.28125 0.328125q0.203125 0.109375 0.578125 0.109375q0.265625 0 0.71875 -0.0625zm1.6051636 -10.0l0 -1.890625l1.640625 0l0 1.890625l-1.640625 0zm0 11.46875l0 -9.671875l1.640625 0l0 9.671875l-1.640625 0zm7.7229614 -1.46875l0.234375 1.453125q-0.6875 0.140625 -1.234375 0.140625q-0.890625 0 -1.390625 -0.28125q-0.484375 -0.28125 -0.6875 -0.734375q-0.203125 -0.46875 -0.203125 -1.9375l0 -5.578125l-1.203125 0l0 -1.265625l1.203125 0l0 -2.390625l1.625 -0.984375l0 3.375l1.65625 0l0 1.265625l-1.65625 0l0 5.671875q0 0.6875 0.078125 0.890625q0.09375 0.203125 0.28125 0.328125q0.203125 0.109375 0.578125 0.109375q0.265625 0 0.71875 -0.0625zm1.5270386 5.1875l-0.1875 -1.53125q0.546875 0.140625 0.9375 0.140625q0.546875 0 0.875 -0.1875q0.328125 -0.171875 0.546875 -0.5q0.15625 -0.25 0.5 -1.21875q0.046875 -0.140625 0.140625 -0.40625l-3.671875 -9.6875l1.765625 0l2.015625 5.59375q0.390625 1.078125 0.703125 2.25q0.28125 -1.125 0.671875 -2.203125l2.078125 -5.640625l1.640625 0l-3.6875 9.828125q-0.59375 1.609375 -0.921875 2.203125q-0.4375 0.8125 -1.0 1.1875q-0.5625 0.375 -1.34375 0.375q-0.484375 0 -1.0625 -0.203125zm14.136414 -7.25l1.640625 -0.21875q0.28125 1.40625 0.953125 2.015625q0.6875 0.609375 1.65625 0.609375q1.15625 0 1.953125 -0.796875q0.796875 -0.796875 0.796875 -1.984375q0 -1.125 -0.734375 -1.859375q-0.734375 -0.734375 -1.875 -0.734375q-0.46875 0 -1.15625 0.171875l0.1875 -1.4375q0.15625 0.015625 0.265625 0.015625q1.046875 0 1.875 -0.546875q0.84375 -0.546875 0.84375 -1.671875q0 -0.90625 -0.609375 -1.5q-0.609375 -0.59375 -1.578125 -0.59375q-0.953125 0 -1.59375 0.609375q-0.640625 0.59375 -0.8125 1.796875l-1.640625 -0.296875q0.296875 -1.640625 1.359375 -2.546875q1.0625 -0.90625 2.65625 -0.90625q1.09375 0 2.0 0.46875q0.921875 0.46875 1.40625 1.28125q0.5 0.8125 0.5 1.71875q0 0.859375 -0.46875 1.578125q-0.46875 0.703125 -1.375 1.125q1.1875 0.28125 1.84375 1.140625q0.65625 0.859375 0.65625 2.15625q0 1.734375 -1.28125 2.953125q-1.265625 1.21875 -3.21875 1.21875q-1.765625 0 -2.921875 -1.046875q-1.15625 -1.046875 -1.328125 -2.71875z" fill-rule="nonzero"/><path fill="#000000" fill-opacity="0.0" d="m826.4383 417.937l96.8504 0l0 42.015747l-96.8504 0z" fill-rule="evenodd"/><path fill="#e69138" d="m836.90704 444.857l0 -13.359375l9.65625 0l0 1.578125l-7.875 0l0 4.09375l7.375 0l0 1.5625l-7.375 0l0 4.546875l8.1875 0l0 1.578125l-9.96875 0zm12.2092285 0l0 -9.671875l1.46875 0l0 1.375q1.0625 -1.59375 3.078125 -1.59375q0.875 0 1.609375 0.3125q0.734375 0.3125 1.09375 0.828125q0.375 0.5 0.515625 1.203125q0.09375 0.453125 0.09375 1.59375l0 5.953125l-1.640625 0l0 -5.890625q0 -1.0 -0.203125 -1.484375q-0.1875 -0.5 -0.671875 -0.796875q-0.484375 -0.296875 -1.140625 -0.296875q-1.046875 0 -1.8125 0.671875q-0.75 0.65625 -0.75 2.515625l0 5.28125l-1.640625 0zm13.953857 -1.46875l0.234375 1.453125q-0.6875 0.140625 -1.234375 0.140625q-0.890625 0 -1.390625 -0.28125q-0.484375 -0.28125 -0.6875 -0.734375q-0.203125 -0.46875 -0.203125 -1.9375l0 -5.578125l-1.203125 0l0 -1.265625l1.203125 0l0 -2.390625l1.625 -0.984375l0 3.375l1.65625 0l0 1.265625l-1.65625 0l0 5.671875q0 0.6875 0.078125 0.890625q0.09375 0.203125 0.28125 0.328125q0.203125 0.109375 0.578125 0.109375q0.265625 0 0.71875 -0.0625zm1.6051636 -10.0l0 -1.890625l1.640625 0l0 1.890625l-1.640625 0zm0 11.46875l0 -9.671875l1.640625 0l0 9.671875l-1.640625 0zm7.7229614 -1.46875l0.234375 1.453125q-0.6875 0.140625 -1.234375 0.140625q-0.890625 0 -1.390625 -0.28125q-0.484375 -0.28125 -0.6875 -0.734375q-0.203125 -0.46875 -0.203125 -1.9375l0 -5.578125l-1.203125 0l0 -1.265625l1.203125 0l0 -2.390625l1.625 -0.984375l0 3.375l1.65625 0l0 1.265625l-1.65625 0l0 5.671875q0 0.6875 0.078125 0.890625q0.09375 0.203125 0.28125 0.328125q0.203125 0.109375 0.578125 0.109375q0.265625 0 0.71875 -0.0625zm1.5270386 5.1875l-0.1875 -1.53125q0.546875 0.140625 0.9375 0.140625q0.546875 0 0.875 -0.1875q0.328125 -0.171875 0.546875 -0.5q0.15625 -0.25 0.5 -1.21875q0.046875 -0.140625 0.140625 -0.40625l-3.671875 -9.6875l1.765625 0l2.015625 5.59375q0.390625 1.078125 0.703125 2.25q0.28125 -1.125 0.671875 -2.203125l2.078125 -5.640625l1.640625 0l-3.6875 9.828125q-0.59375 1.609375 -0.921875 2.203125q-0.4375 0.8125 -1.0 1.1875q-0.5625 0.375 -1.34375 0.375q-0.484375 0 -1.0625 -0.203125zm19.386414 -3.71875l0 -3.203125l-5.796875 0l0 -1.5l6.09375 -8.65625l1.34375 0l0 8.65625l1.796875 0l0 1.5l-1.796875 0l0 3.203125l-1.640625 0zm0 -4.703125l0 -6.015625l-4.1875 6.015625l4.1875 0z" fill-rule="nonzero"/><path fill="#ea9999" d="m972.8084 163.29396l0 0c0 -5.940323 5.302063 -10.755905 11.842529 -10.755905l0 0c6.5404053 0 11.842468 4.8155823 11.842468 10.755905l0 0c0 5.940323 -5.302063 10.755905 -11.842468 10.755905l0 0c-6.5404663 0 -11.842529 -4.8155823 -11.842529 -10.755905z" fill-rule="evenodd"/><path stroke="#ea9999" stroke-width="1.0" stroke-linejoin="round" stroke-linecap="butt" d="m972.8084 163.29396l0 0c0 -5.940323 5.302063 -10.755905 11.842529 -10.755905l0 0c6.5404053 0 11.842468 4.8155823 11.842468 10.755905l0 0c0 5.940323 -5.302063 10.755905 -11.842468 10.755905l0 0c-6.5404663 0 -11.842529 -4.8155823 -11.842529 -10.755905z" fill-rule="evenodd"/><path fill="#b6d7a8" d="m972.8084 256.9895l0 0c0 -5.940323 5.302063 -10.755905 11.842529 -10.755905l0 0c6.5404053 0 11.842468 4.8155823 11.842468 10.755905l0 0c0 5.9403076 -5.302063 10.75589 -11.842468 10.75589l0 0c-6.5404663 0 -11.842529 -4.8155823 -11.842529 -10.75589z" fill-rule="evenodd"/><path stroke="#b6d7a8" stroke-width="1.0" stroke-linejoin="round" stroke-linecap="butt" d="m972.8084 256.9895l0 0c0 -5.940323 5.302063 -10.755905 11.842529 -10.755905l0 0c6.5404053 0 11.842468 4.8155823 11.842468 10.755905l0 0c0 5.9403076 -5.302063 10.75589 -11.842468 10.75589l0 0c-6.5404663 0 -11.842529 -4.8155823 -11.842529 -10.75589z" fill-rule="evenodd"/><path fill="#000000" fill-opacity="0.0" d="m932.2231 502.4567l394.86615 0" fill-rule="evenodd"/><path stroke="#000000" stroke-width="1.0" stroke-linejoin="round" stroke-linecap="butt" d="m932.2231 502.4567l388.86615 0" fill-rule="evenodd"/><path fill="#000000" stroke="#000000" stroke-width="1.0" stroke-linecap="butt" d="m1321.0892 504.10843l4.538086 -1.6517334l-4.538086 -1.6517334z" fill-rule="evenodd"/><path fill="#000000" fill-opacity="0.0" d="m1338.2992 474.71915l80.72449 0l0 42.015778l-80.72449 0z" fill-rule="evenodd"/><path fill="#000000" d="m1352.1117 500.1704l0.234375 1.453125q-0.6875 0.140625 -1.234375 0.140625q-0.890625 0 -1.390625 -0.28125q-0.484375 -0.28125 -0.6875 -0.734375q-0.203125 -0.46875 -0.203125 -1.9375l0 -5.578125l-1.203125 0l0 -1.265625l1.203125 0l0 -2.390625l1.625 -0.984375l0 3.375l1.65625 0l0 1.265625l-1.65625 0l0 5.671875q0 0.6875 0.078125 0.890625q0.09375 0.203125 0.28125 0.328125q0.203125 0.109375 0.578125 0.109375q0.265625 0 0.71875 -0.0625zm1.6052246 -10.0l0 -1.890625l1.640625 0l0 1.890625l-1.640625 0zm0 11.46875l0 -9.671875l1.640625 0l0 9.671875l-1.640625 0zm4.1447754 0l0 -9.671875l1.46875 0l0 1.359375q0.453125 -0.71875 1.203125 -1.140625q0.765625 -0.4375 1.71875 -0.4375q1.078125 0 1.765625 0.453125q0.6875 0.4375 0.96875 1.234375q1.15625 -1.6875 2.984375 -1.6875q1.453125 0 2.21875 0.796875q0.78125 0.796875 0.78125 2.453125l0 6.640625l-1.640625 0l0 -6.09375q0 -0.984375 -0.15625 -1.40625q-0.15625 -0.4375 -0.578125 -0.703125q-0.421875 -0.265625 -0.984375 -0.265625q-1.015625 0 -1.6875 0.6875q-0.671875 0.671875 -0.671875 2.15625l0 5.625l-1.640625 0l0 -6.28125q0 -1.09375 -0.40625 -1.640625q-0.40625 -0.546875 -1.3125 -0.546875q-0.6875 0 -1.28125 0.359375q-0.59375 0.359375 -0.859375 1.0625q-0.25 0.703125 -0.25 2.03125l0 5.015625l-1.640625 0zm22.165771 -3.109375l1.6875 0.203125q-0.40625 1.484375 -1.484375 2.3125q-1.078125 0.8125 -2.765625 0.8125q-2.125 0 -3.375 -1.296875q-1.234375 -1.3125 -1.234375 -3.671875q0 -2.453125 1.25 -3.796875q1.265625 -1.34375 3.265625 -1.34375q1.9375 0 3.15625 1.328125q1.234375 1.3125 1.234375 3.703125q0 0.15625 0 0.4375l-7.21875 0q0.09375 1.59375 0.90625 2.453125q0.8125 0.84375 2.015625 0.84375q0.90625 0 1.546875 -0.46875q0.640625 -0.484375 1.015625 -1.515625zm-5.390625 -2.65625l5.40625 0q-0.109375 -1.21875 -0.625 -1.828125q-0.78125 -0.953125 -2.03125 -0.953125q-1.125 0 -1.90625 0.765625q-0.765625 0.75 -0.84375 2.015625z" fill-rule="nonzero"/><path fill="#6fa8dc" d="m1042.6194 345.15222l0 0c0 -5.9403076 5.302124 -10.75589 11.842529 -10.75589l0 0c6.5405273 0 11.842529 4.8155823 11.842529 10.75589l0 0c0 5.940338 -5.302002 10.75592 -11.842529 10.75592l0 0c-6.5404053 0 -11.842529 -4.8155823 -11.842529 -10.75592z" fill-rule="evenodd"/><path stroke="#6fa8dc" stroke-width="1.0" stroke-linejoin="round" stroke-linecap="butt" d="m1042.6194 345.15222l0 0c0 -5.9403076 5.302124 -10.75589 11.842529 -10.75589l0 0c6.5405273 0 11.842529 4.8155823 11.842529 10.75589l0 0c0 5.940338 -5.302002 10.75592 -11.842529 10.75592l0 0c-6.5404053 0 -11.842529 -4.8155823 -11.842529 -10.75592z" fill-rule="evenodd"/><path fill="#f6b26b" d="m1042.6194 438.84778l0 0c0 -5.940338 5.302124 -10.75592 11.842529 -10.75592l0 0c6.5405273 0 11.842529 4.8155823 11.842529 10.75592l0 0c0 5.9403076 -5.302002 10.75589 -11.842529 10.75589l0 0c-6.5404053 0 -11.842529 -4.8155823 -11.842529 -10.75589z" fill-rule="evenodd"/><path stroke="#f6b26b" stroke-width="1.0" stroke-linejoin="round" stroke-linecap="butt" d="m1042.6194 438.84778l0 0c0 -5.940338 5.302124 -10.75592 11.842529 -10.75592l0 0c6.5405273 0 11.842529 4.8155823 11.842529 10.75592l0 0c0 5.9403076 -5.302002 10.75589 -11.842529 10.75589l0 0c-6.5404053 0 -11.842529 -4.8155823 -11.842529 -10.75589z" fill-rule="evenodd"/><path fill="#6fa8dc" d="m1117.3464 345.15222l0 0c0 -5.9403076 5.302124 -10.75589 11.842529 -10.75589l0 0c6.5404053 0 11.842529 4.8155823 11.842529 10.75589l0 0c0 5.940338 -5.302124 10.75592 -11.842529 10.75592l0 0c-6.5404053 0 -11.842529 -4.8155823 -11.842529 -10.75592z" fill-rule="evenodd"/><path stroke="#6fa8dc" stroke-width="1.0" stroke-linejoin="round" stroke-linecap="butt" d="m1117.3464 345.15222l0 0c0 -5.9403076 5.302124 -10.75589 11.842529 -10.75589l0 0c6.5404053 0 11.842529 4.8155823 11.842529 10.75589l0 0c0 5.940338 -5.302124 10.75592 -11.842529 10.75592l0 0c-6.5404053 0 -11.842529 -4.8155823 -11.842529 -10.75592z" fill-rule="evenodd"/><path fill="#b6d7a8" d="m1117.8136 256.9895l0 0c0 -5.940323 5.302124 -10.755905 11.842529 -10.755905l0 0c6.5405273 0 11.842529 4.8155823 11.842529 10.755905l0 0c0 5.9403076 -5.302002 10.75589 -11.842529 10.75589l0 0c-6.5404053 0 -11.842529 -4.8155823 -11.842529 -10.75589z" fill-rule="evenodd"/><path stroke="#b6d7a8" stroke-width="1.0" stroke-linejoin="round" stroke-linecap="butt" d="m1117.8136 256.9895l0 0c0 -5.940323 5.302124 -10.755905 11.842529 -10.755905l0 0c6.5405273 0 11.842529 4.8155823 11.842529 10.755905l0 0c0 5.9403076 -5.302002 10.75589 -11.842529 10.75589l0 0c-6.5404053 0 -11.842529 -4.8155823 -11.842529 -10.75589z" fill-rule="evenodd"/><path fill="#f6b26b" d="m1247.8478 438.84778l0 0c0 -5.940338 5.302124 -10.75592 11.842529 -10.75592l0 0c6.5404053 0 11.842529 4.8155823 11.842529 10.75592l0 0c0 5.9403076 -5.302124 10.75589 -11.842529 10.75589l0 0c-6.5404053 0 -11.842529 -4.8155823 -11.842529 -10.75589z" fill-rule="evenodd"/><path stroke="#f6b26b" stroke-width="1.0" stroke-linejoin="round" stroke-linecap="butt" d="m1247.8478 438.84778l0 0c0 -5.940338 5.302124 -10.75592 11.842529 -10.75592l0 0c6.5404053 0 11.842529 4.8155823 11.842529 10.75592l0 0c0 5.9403076 -5.302124 10.75589 -11.842529 10.75589l0 0c-6.5404053 0 -11.842529 -4.8155823 -11.842529 -10.75589z" fill-rule="evenodd"/><path fill="#ea9999" d="m1247.8478 163.29396l0 0c0 -5.940323 5.302124 -10.755905 11.842529 -10.755905l0 0c6.5404053 0 11.842529 4.8155823 11.842529 10.755905l0 0c0 5.940323 -5.302124 10.755905 -11.842529 10.755905l0 0c-6.5404053 0 -11.842529 -4.8155823 -11.842529 -10.755905z" fill-rule="evenodd"/><path stroke="#ea9999" stroke-width="1.0" stroke-linejoin="round" stroke-linecap="butt" d="m1247.8478 163.29396l0 0c0 -5.940323 5.302124 -10.755905 11.842529 -10.755905l0 0c6.5404053 0 11.842529 4.8155823 11.842529 10.755905l0 0c0 5.940323 -5.302124 10.755905 -11.842529 10.755905l0 0c-6.5404053 0 -11.842529 -4.8155823 -11.842529 -10.755905z" fill-rule="evenodd"/><path fill="#000000" fill-opacity="0.0" d="m984.65094 246.2336l0 -72.18898" fill-rule="evenodd"/><path stroke="#000000" stroke-width="1.0" stroke-linejoin="round" stroke-linecap="butt" d="m984.65094 246.2336l0 -72.18898" fill-rule="evenodd"/><path fill="#000000" fill-opacity="0.0" d="m1129.189 334.39633l0.4724121 -66.64566" fill-rule="evenodd"/><path stroke="#000000" stroke-width="1.0" stroke-linejoin="round" stroke-linecap="butt" d="m1129.189 334.39633l0.4724121 -66.64566" fill-rule="evenodd"/><path fill="#000000" fill-opacity="0.0" d="m1054.4619 428.09186l0 -72.188965" fill-rule="evenodd"/><path stroke="#000000" stroke-width="1.0" stroke-linejoin="round" stroke-linecap="butt" d="m1054.4619 428.09186l0 -72.188965" fill-rule="evenodd"/><path fill="#000000" fill-opacity="0.0" d="m1259.6903 428.0971l0 -254.04724" fill-rule="evenodd"/><path stroke="#000000" stroke-width="1.0" stroke-linejoin="round" stroke-linecap="butt" d="m1259.6903 428.0971l0 -254.04724" fill-rule="evenodd"/><path fill="#000000" fill-opacity="0.0" d="m958.2533 148.61456l0 0c0 -10.909653 8.843994 -19.753677 19.753662 -19.753677l79.01233 0l0 0c5.2390137 0 10.263428 2.081192 13.968018 5.785721c3.7044678 3.704544 5.7856445 8.728958 5.7856445 13.967957l0 302.4139c0 10.909668 -8.843994 19.753693 -19.753662 19.753693l-79.01233 0c-10.909668 0 -19.753662 -8.844025 -19.753662 -19.753693z" fill-rule="evenodd"/><path stroke="#000000" stroke-width="1.0" stroke-linejoin="round" stroke-linecap="butt" stroke-dasharray="8.0,3.0" d="m958.2533 148.61456l0 0c0 -10.909653 8.843994 -19.753677 19.753662 -19.753677l79.01233 0l0 0c5.2390137 0 10.263428 2.081192 13.968018 5.785721c3.7044678 3.704544 5.7856445 8.728958 5.7856445 13.967957l0 302.4139c0 10.909668 -8.843994 19.753693 -19.753662 19.753693l-79.01233 0c-10.909668 0 -19.753662 -8.844025 -19.753662 -19.753693z" fill-rule="evenodd"/><path fill="#000000" fill-opacity="0.0" d="m1100.105 156.90616l0 0c0 -17.859009 14.477539 -32.3366 32.33667 -32.3366l129.34253 0l0 0c8.576172 0 16.801147 3.4068756 22.865356 9.4711685c6.064331 6.0642853 9.471191 14.28923 9.471191 22.865433l0 281.53152c0 17.859009 -14.477539 32.33661 -32.336548 32.33661l-129.34253 0c-17.85913 0 -32.33667 -14.4776 -32.33667 -32.33661z" fill-rule="evenodd"/><path stroke="#000000" stroke-width="1.0" stroke-linejoin="round" stroke-linecap="butt" stroke-dasharray="8.0,3.0" d="m1100.105 156.90616l0 0c0 -17.859009 14.477539 -32.3366 32.33667 -32.3366l129.34253 0l0 0c8.576172 0 16.801147 3.4068756 22.865356 9.4711685c6.064331 6.0642853 9.471191 14.28923 9.471191 22.865433l0 281.53152c0 17.859009 -14.477539 32.33661 -32.336548 32.33661l-129.34253 0c-17.85913 0 -32.33667 -14.4776 -32.33667 -32.33661z" fill-rule="evenodd"/><path fill="#000000" d="m1371.3386 147.14961l0 0c0 -5.940323 5.302002 -10.755905 11.842529 -10.755905l0 0c6.5404053 0 11.842529 4.8155823 11.842529 10.755905l0 0c0 5.940323 -5.302124 10.755905 -11.842529 10.755905l0 0c-6.5405273 0 -11.842529 -4.8155823 -11.842529 -10.755905z" fill-rule="evenodd"/><path stroke="#000000" stroke-width="1.0" stroke-linejoin="round" stroke-linecap="butt" d="m1371.3386 147.14961l0 0c0 -5.940323 5.302002 -10.755905 11.842529 -10.755905l0 0c6.5404053 0 11.842529 4.8155823 11.842529 10.755905l0 0c0 5.940323 -5.302124 10.755905 -11.842529 10.755905l0 0c-6.5405273 0 -11.842529 -4.8155823 -11.842529 -10.755905z" fill-rule="evenodd"/><path fill="#000000" d="m1420.9423 147.14961l0 0c0 -5.940323 5.302124 -10.755905 11.842529 -10.755905l0 0c6.5404053 0 11.842529 4.8155823 11.842529 10.755905l0 0c0 5.940323 -5.302124 10.755905 -11.842529 10.755905l0 0c-6.5404053 0 -11.842529 -4.8155823 -11.842529 -10.755905z" fill-rule="evenodd"/><path stroke="#000000" stroke-width="1.0" stroke-linejoin="round" stroke-linecap="butt" d="m1420.9423 147.14961l0 0c0 -5.940323 5.302124 -10.755905 11.842529 -10.755905l0 0c6.5404053 0 11.842529 4.8155823 11.842529 10.755905l0 0c0 5.940323 -5.302124 10.755905 -11.842529 10.755905l0 0c-6.5404053 0 -11.842529 -4.8155823 -11.842529 -10.755905z" fill-rule="evenodd"/><path fill="#000000" fill-opacity="0.0" d="m1395.0237 147.14961l25.921143 0" fill-rule="evenodd"/><path stroke="#000000" stroke-width="1.0" stroke-linejoin="round" stroke-linecap="butt" d="m1395.0237 147.14961l25.921143 0" fill-rule="evenodd"/><path fill="#000000" fill-opacity="0.0" d="m1455.8556 123.01312l110.86621 0l0 42.015747l-110.86621 0z" fill-rule="evenodd"/><path fill="#000000" d="m1466.3243 149.93312l0 -13.359375l9.65625 0l0 1.578125l-7.875 0l0 4.09375l7.375 0l0 1.5625l-7.375 0l0 4.546875l8.1875 0l0 1.578125l-9.96875 0zm14.8967285 0l-3.6875 -9.671875l1.734375 0l2.078125 5.796875q0.328125 0.9375 0.625 1.9375q0.203125 -0.765625 0.609375 -1.828125l2.140625 -5.90625l1.6875 0l-3.65625 9.671875l-1.53125 0zm13.265625 -3.109375l1.6875 0.203125q-0.40625 1.484375 -1.484375 2.3125q-1.078125 0.8125 -2.765625 0.8125q-2.125 0 -3.375 -1.296875q-1.234375 -1.3125 -1.234375 -3.671875q0 -2.453125 1.25 -3.796875q1.265625 -1.34375 3.265625 -1.34375q1.9375 0 3.15625 1.328125q1.234375 1.3125 1.234375 3.703125q0 0.15625 0 0.4375l-7.21875 0q0.09375 1.59375 0.90625 2.453125q0.8125 0.84375 2.015625 0.84375q0.90625 0 1.546875 -0.46875q0.640625 -0.484375 1.015625 -1.515625zm-5.390625 -2.65625l5.40625 0q-0.109375 -1.21875 -0.625 -1.828125q-0.78125 -0.953125 -2.03125 -0.953125q-1.125 0 -1.90625 0.765625q-0.765625 0.75 -0.84375 2.015625zm9.141357 5.765625l0 -9.671875l1.46875 0l0 1.375q1.0625 -1.59375 3.078125 -1.59375q0.875 0 1.609375 0.3125q0.734375 0.3125 1.09375 0.828125q0.375 0.5 0.515625 1.203125q0.09375 0.453125 0.09375 1.59375l0 5.953125l-1.640625 0l0 -5.890625q0 -1.0 -0.203125 -1.484375q-0.1875 -0.5 -0.671875 -0.796875q-0.484375 -0.296875 -1.140625 -0.296875q-1.046875 0 -1.8125 0.671875q-0.75 0.65625 -0.75 2.515625l0 5.28125l-1.640625 0zm13.953857 -1.46875l0.234375 1.453125q-0.6875 0.140625 -1.234375 0.140625q-0.890625 0 -1.390625 -0.28125q-0.484375 -0.28125 -0.6875 -0.734375q-0.203125 -0.46875 -0.203125 -1.9375l0 -5.578125l-1.203125 0l0 -1.265625l1.203125 0l0 -2.390625l1.625 -0.984375l0 3.375l1.65625 0l0 1.265625l-1.65625 0l0 5.671875q0 0.6875 0.078125 0.890625q0.09375 0.203125 0.28125 0.328125q0.203125 0.109375 0.578125 0.109375q0.265625 0 0.71875 -0.0625z" fill-rule="nonzero"/><path fill="#000000" fill-opacity="0.0" d="m1371.3386 181.05263l0 0c0 -3.867508 3.135254 -7.002762 7.0026855 -7.002762l66.71887 0c1.8572998 0 3.6384277 0.73779297 4.951782 2.0510712c1.3132324 1.3132629 2.0510254 3.094452 2.0510254 4.9516907l0 28.010223c0 3.8675232 -3.135254 7.002762 -7.0028076 7.002762l-66.71887 0c-3.8674316 0 -7.0026855 -3.1352386 -7.0026855 -7.002762z" fill-rule="evenodd"/><path stroke="#000000" stroke-width="1.0" stroke-linejoin="round" stroke-linecap="butt" stroke-dasharray="8.0,3.0" d="m1371.3386 181.05263l0 0c0 -3.867508 3.135254 -7.002762 7.0026855 -7.002762l66.71887 0c1.8572998 0 3.6384277 0.73779297 4.951782 2.0510712c1.3132324 1.3132629 2.0510254 3.094452 2.0510254 4.9516907l0 28.010223c0 3.8675232 -3.135254 7.002762 -7.0028076 7.002762l-66.71887 0c-3.8674316 0 -7.0026855 -3.1352386 -7.0026855 -7.002762z" fill-rule="evenodd"/><path fill="#000000" fill-opacity="0.0" d="m918.0 24.0l544.0 0l0 50.078743l-544.0 0z" fill-rule="evenodd"/><path fill="#000000" d="m928.9531 57.32l0 -18.125l6.25 0q2.109375 0 3.21875 0.25q1.5625 0.359375 2.671875 1.296875q1.421875 1.21875 2.125 3.109375q0.71875 1.875 0.71875 4.296875q0 2.078125 -0.484375 3.671875q-0.46875 1.59375 -1.234375 2.640625q-0.75 1.046875 -1.65625 1.640625q-0.890625 0.59375 -2.15625 0.90625q-1.265625 0.3125 -2.90625 0.3125l-6.546875 0zm2.40625 -2.140625l3.859375 0q1.796875 0 2.8125 -0.328125q1.03125 -0.34375 1.640625 -0.9375q0.84375 -0.859375 1.3125 -2.296875q0.484375 -1.4375 0.484375 -3.5q0 -2.84375 -0.9375 -4.359375q-0.921875 -1.53125 -2.265625 -2.0625q-0.96875 -0.359375 -3.109375 -0.359375l-3.796875 0l0 13.84375zm15.509888 7.203125l-0.25 -2.09375q0.71875 0.203125 1.265625 0.203125q0.75 0 1.1875 -0.25q0.453125 -0.25 0.734375 -0.703125q0.203125 -0.328125 0.671875 -1.65625q0.0625 -0.171875 0.203125 -0.53125l-4.984375 -13.171875l2.40625 0l2.734375 7.609375q0.53125 1.453125 0.953125 3.046875q0.375 -1.53125 0.90625 -3.0l2.8125 -7.65625l2.21875 0l-5.0 13.359375q-0.796875 2.171875 -1.234375 2.984375q-0.59375 1.09375 -1.375 1.609375q-0.765625 0.515625 -1.828125 0.515625q-0.640625 0 -1.421875 -0.265625zm12.7578125 -5.0625l0 -13.140625l2.0 0l0 1.875q1.453125 -2.171875 4.1875 -2.171875q1.1875 0 2.171875 0.4375q1.0 0.421875 1.484375 1.125q0.5 0.6875 0.703125 1.640625q0.125 0.609375 0.125 2.15625l0 8.078125l-2.234375 0l0 -7.984375q0 -1.359375 -0.265625 -2.03125q-0.25 -0.6875 -0.90625 -1.078125q-0.65625 -0.40625 -1.546875 -0.40625q-1.421875 0 -2.46875 0.90625q-1.03125 0.890625 -1.03125 3.421875l0 7.171875l-2.21875 0zm22.648804 -1.625q-1.234375 1.0625 -2.375 1.5q-1.140625 0.421875 -2.453125 0.421875q-2.171875 0 -3.328125 -1.046875q-1.15625 -1.0625 -1.15625 -2.71875q0 -0.953125 0.4375 -1.75q0.4375 -0.796875 1.140625 -1.28125q0.71875 -0.484375 1.609375 -0.734375q0.65625 -0.171875 1.96875 -0.328125q2.703125 -0.328125 3.96875 -0.765625q0.015625 -0.46875 0.015625 -0.59375q0 -1.359375 -0.625 -1.90625q-0.859375 -0.765625 -2.53125 -0.765625q-1.578125 0 -2.328125 0.5625q-0.75 0.546875 -1.109375 1.9375l-2.171875 -0.296875q0.296875 -1.390625 0.96875 -2.25q0.6875 -0.859375 1.96875 -1.328125q1.296875 -0.46875 2.984375 -0.46875q1.6875 0 2.734375 0.40625q1.046875 0.390625 1.546875 1.0q0.5 0.59375 0.6875 1.5q0.125 0.578125 0.125 2.0625l0 2.96875q0 3.09375 0.140625 3.921875q0.140625 0.828125 0.5625 1.578125l-2.328125 0q-0.34375 -0.6875 -0.453125 -1.625zm-0.1875 -4.96875q-1.203125 0.5 -3.625 0.84375q-1.375 0.203125 -1.953125 0.453125q-0.5625 0.234375 -0.875 0.71875q-0.296875 0.46875 -0.296875 1.046875q0 0.890625 0.671875 1.484375q0.671875 0.59375 1.96875 0.59375q1.28125 0 2.28125 -0.5625q1.0 -0.5625 1.484375 -1.53125q0.34375 -0.75 0.34375 -2.234375l0 -0.8125zm5.7113037 6.59375l0 -13.140625l1.984375 0l0 1.84375q0.625 -0.953125 1.640625 -1.546875q1.03125 -0.59375 2.34375 -0.59375q1.46875 0 2.390625 0.609375q0.9375 0.609375 1.328125 1.703125q1.546875 -2.3125 4.046875 -2.3125q1.953125 0 3.0 1.09375q1.0625 1.078125 1.0625 3.328125l0 9.015625l-2.21875 0l0 -8.28125q0 -1.328125 -0.21875 -1.90625q-0.21875 -0.59375 -0.78125 -0.953125q-0.5625 -0.359375 -1.328125 -0.359375q-1.390625 0 -2.3125 0.921875q-0.90625 0.921875 -0.90625 2.953125l0 7.625l-2.234375 0l0 -8.53125q0 -1.484375 -0.546875 -2.21875q-0.53125 -0.75 -1.78125 -0.75q-0.9375 0 -1.734375 0.5q-0.796875 0.484375 -1.15625 1.4375q-0.359375 0.953125 -0.359375 2.75l0 6.8125l-2.21875 0zm21.114197 -15.578125l0 -2.546875l2.21875 0l0 2.546875l-2.21875 0zm0 15.578125l0 -13.140625l2.21875 0l0 13.140625l-2.21875 0zm14.17395 -4.8125l2.187561 0.28125q-0.34375 2.265625 -1.828186 3.546875q-1.484375 1.28125 -3.625 1.28125q-2.703125 0 -4.34375 -1.765625q-1.640625 -1.765625 -1.640625 -5.046875q0 -2.125 0.703125 -3.71875q0.71875 -1.59375 2.15625 -2.390625q1.4375 -0.8125 3.125 -0.8125q2.140625 0 3.5 1.09375q1.359436 1.078125 1.750061 3.0625l-2.171936 0.34375q-0.296875 -1.328125 -1.09375 -1.984375q-0.78125 -0.671875 -1.890625 -0.671875q-1.6875 0 -2.734375 1.203125q-1.046875 1.203125 -1.046875 3.8125q0 2.640625 1.015625 3.84375q1.015625 1.203125 2.640625 1.203125q1.3125 0 2.1875 -0.796875q0.875 -0.8125 1.109375 -2.484375zm19.904114 -2.296875l0 -2.125l7.6875 -0.015625l0 6.734375q-1.78125 1.40625 -3.65625 2.125q-1.875 0.703125 -3.859375 0.703125q-2.671875 0 -4.859375 -1.140625q-2.171875 -1.15625 -3.296875 -3.3125q-1.109375 -2.171875 -1.109375 -4.84375q0 -2.640625 1.109375 -4.9375q1.109375 -2.296875 3.1875 -3.40625q2.078125 -1.109375 4.78125 -1.109375q1.96875 0 3.5625 0.640625q1.59375 0.625 2.484375 1.765625q0.90625 1.140625 1.375 2.96875l-2.15625 0.59375q-0.40625 -1.375 -1.015625 -2.171875q-0.609375 -0.796875 -1.734375 -1.265625q-1.125 -0.484375 -2.5 -0.484375q-1.640625 0 -2.84375 0.5q-1.203125 0.5 -1.9375 1.328125q-0.734375 0.8125 -1.140625 1.78125q-0.6875 1.6875 -0.6875 3.65625q0 2.421875 0.828125 4.0625q0.828125 1.625 2.421875 2.421875q1.609375 0.78125 3.390625 0.78125q1.5625 0 3.046875 -0.59375q1.484375 -0.609375 2.25 -1.28125l0 -3.375l-5.328125 0zm10.904175 7.109375l0 -13.140625l2.0 0l0 2.0q0.78125 -1.40625 1.421875 -1.84375q0.65625 -0.453125 1.4375 -0.453125q1.125 0 2.28125 0.71875l-0.765625 2.078125q-0.8125 -0.484375 -1.640625 -0.484375q-0.71875 0 -1.3125 0.4375q-0.578125 0.4375 -0.828125 1.21875q-0.359375 1.1875 -0.359375 2.59375l0 6.875l-2.234375 0zm17.028198 -1.625q-1.234375 1.0625 -2.375 1.5q-1.140625 0.421875 -2.453125 0.421875q-2.171875 0 -3.328125 -1.046875q-1.15625 -1.0625 -1.15625 -2.71875q0 -0.953125 0.4375 -1.75q0.4375 -0.796875 1.140625 -1.28125q0.71875 -0.484375 1.609375 -0.734375q0.65625 -0.171875 1.96875 -0.328125q2.703125 -0.328125 3.96875 -0.765625q0.015625 -0.46875 0.015625 -0.59375q0 -1.359375 -0.625 -1.90625q-0.859375 -0.765625 -2.53125 -0.765625q-1.578125 0 -2.328125 0.5625q-0.75 0.546875 -1.109375 1.9375l-2.171875 -0.296875q0.296875 -1.390625 0.96875 -2.25q0.6875 -0.859375 1.96875 -1.328125q1.296875 -0.46875 2.984375 -0.46875q1.6875 0 2.734375 0.40625q1.046875 0.390625 1.546875 1.0q0.5 0.59375 0.6875 1.5q0.125 0.578125 0.125 2.0625l0 2.96875q0 3.09375 0.140625 3.921875q0.140625 0.828125 0.5625 1.578125l-2.328125 0q-0.34375 -0.6875 -0.453125 -1.625zm-0.1875 -4.96875q-1.203125 0.5 -3.625 0.84375q-1.375 0.203125 -1.953125 0.453125q-0.5625 0.234375 -0.875 0.71875q-0.296875 0.46875 -0.296875 1.046875q0 0.890625 0.671875 1.484375q0.671875 0.59375 1.96875 0.59375q1.28125 0 2.28125 -0.5625q1.0 -0.5625 1.484375 -1.53125q0.34375 -0.75 0.34375 -2.234375l0 -0.8125zm5.711426 11.625l0 -18.171875l2.03125 0l0 1.71875q0.71875 -1.0 1.609375 -1.5q0.90625 -0.515625 2.1875 -0.515625q1.6875 0 2.96875 0.875q1.296875 0.859375 1.953125 2.4375q0.65625 1.578125 0.65625 3.453125q0 2.015625 -0.734375 3.640625q-0.71875 1.609375 -2.09375 2.46875q-1.375 0.859375 -2.90625 0.859375q-1.109375 0 -2.0 -0.46875q-0.875 -0.46875 -1.453125 -1.1875l0 6.390625l-2.21875 0zm2.015625 -11.53125q0 2.546875 1.015625 3.765625q1.03125 1.203125 2.5 1.203125q1.484375 0 2.53125 -1.25q1.0625 -1.265625 1.0625 -3.890625q0 -2.515625 -1.03125 -3.765625q-1.03125 -1.25 -2.46875 -1.25q-1.421875 0 -2.515625 1.328125q-1.09375 1.328125 -1.09375 3.859375zm12.070557 6.5l0 -18.125l2.21875 0l0 6.5q1.5625 -1.8125 3.9375 -1.8125q1.453125 0 2.53125 0.578125q1.078125 0.578125 1.546875 1.59375q0.46875 1.015625 0.46875 2.9375l0 8.328125l-2.234375 0l0 -8.328125q0 -1.671875 -0.734375 -2.421875q-0.71875 -0.765625 -2.03125 -0.765625q-1.0 0 -1.875 0.515625q-0.859375 0.515625 -1.234375 1.390625q-0.375 0.875 -0.375 2.421875l0 7.1875l-2.21875 0zm21.404541 0l0 -18.125l6.25 0q2.109375 0 3.21875 0.25q1.5625 0.359375 2.671875 1.296875q1.421875 1.21875 2.125 3.109375q0.71875 1.875 0.71875 4.296875q0 2.078125 -0.484375 3.671875q-0.46875 1.59375 -1.234375 2.640625q-0.75 1.046875 -1.65625 1.640625q-0.890625 0.59375 -2.15625 0.90625q-1.265625 0.3125 -2.90625 0.3125l-6.546875 0zm2.40625 -2.140625l3.859375 0q1.796875 0 2.8125 -0.328125q1.03125 -0.34375 1.640625 -0.9375q0.84375 -0.859375 1.3125 -2.296875q0.484375 -1.4375 0.484375 -3.5q0 -2.84375 -0.9375 -4.359375q-0.921875 -1.53125 -2.265625 -2.0625q-0.96875 -0.359375 -3.109375 -0.359375l-3.796875 0l0 13.84375zm24.16626 0.515625q-1.234375 1.0625 -2.375 1.5q-1.140625 0.421875 -2.453125 0.421875q-2.171875 0 -3.328125 -1.046875q-1.15625 -1.0625 -1.15625 -2.71875q0 -0.953125 0.4375 -1.75q0.4375 -0.796875 1.140625 -1.28125q0.71875 -0.484375 1.609375 -0.734375q0.65625 -0.171875 1.96875 -0.328125q2.703125 -0.328125 3.96875 -0.765625q0.015625 -0.46875 0.015625 -0.59375q0 -1.359375 -0.625 -1.90625q-0.859375 -0.765625 -2.53125 -0.765625q-1.578125 0 -2.328125 0.5625q-0.75 0.546875 -1.109375 1.9375l-2.171875 -0.296875q0.296875 -1.390625 0.96875 -2.25q0.6875 -0.859375 1.96875 -1.328125q1.296875 -0.46875 2.984375 -0.46875q1.6875 0 2.734375 0.40625q1.046875 0.390625 1.546875 1.0q0.5 0.59375 0.6875 1.5q0.125 0.578125 0.125 2.0625l0 2.96875q0 3.09375 0.140625 3.921875q0.140625 0.828125 0.5625 1.578125l-2.328125 0q-0.34375 -0.6875 -0.453125 -1.625zm-0.1875 -4.96875q-1.203125 0.5 -3.625 0.84375q-1.375 0.203125 -1.953125 0.453125q-0.5625 0.234375 -0.875 0.71875q-0.296875 0.46875 -0.296875 1.046875q0 0.890625 0.671875 1.484375q0.671875 0.59375 1.96875 0.59375q1.28125 0 2.28125 -0.5625q1.0 -0.5625 1.484375 -1.53125q0.34375 -0.75 0.34375 -2.234375l0 -0.8125zm10.570679 4.609375l0.3125 1.953125q-0.9375 0.203125 -1.671875 0.203125q-1.21875 0 -1.890625 -0.375q-0.65625 -0.390625 -0.9375 -1.015625q-0.265625 -0.625 -0.265625 -2.625l0 -7.5625l-1.640625 0l0 -1.734375l1.640625 0l0 -3.25l2.21875 -1.328125l0 4.578125l2.234375 0l0 1.734375l-2.234375 0l0 7.6875q0 0.953125 0.109375 1.234375q0.125 0.265625 0.390625 0.421875q0.265625 0.15625 0.75 0.15625q0.375 0 0.984375 -0.078125zm10.740112 0.359375q-1.234375 1.0625 -2.375 1.5q-1.140625 0.421875 -2.453125 0.421875q-2.171875 0 -3.328125 -1.046875q-1.15625 -1.0625 -1.15625 -2.71875q0 -0.953125 0.4375 -1.75q0.4375 -0.796875 1.140625 -1.28125q0.71875 -0.484375 1.609375 -0.734375q0.65625 -0.171875 1.96875 -0.328125q2.703125 -0.328125 3.96875 -0.765625q0.015625 -0.46875 0.015625 -0.59375q0 -1.359375 -0.625 -1.90625q-0.859375 -0.765625 -2.53125 -0.765625q-1.578125 0 -2.328125 0.5625q-0.75 0.546875 -1.109375 1.9375l-2.171875 -0.296875q0.296875 -1.390625 0.96875 -2.25q0.6875 -0.859375 1.96875 -1.328125q1.296875 -0.46875 2.984375 -0.46875q1.6875 0 2.734375 0.40625q1.046875 0.390625 1.546875 1.0q0.5 0.59375 0.6875 1.5q0.125 0.578125 0.125 2.0625l0 2.96875q0 3.09375 0.140625 3.921875q0.140625 0.828125 0.5625 1.578125l-2.328125 0q-0.34375 -0.6875 -0.453125 -1.625zm-0.1875 -4.96875q-1.203125 0.5 -3.625 0.84375q-1.375 0.203125 -1.953125 0.453125q-0.5625 0.234375 -0.875 0.71875q-0.296875 0.46875 -0.296875 1.046875q0 0.890625 0.671875 1.484375q0.671875 0.59375 1.96875 0.59375q1.28125 0 2.28125 -0.5625q1.0 -0.5625 1.484375 -1.53125q0.34375 -0.75 0.34375 -2.234375l0 -0.8125z" fill-rule="nonzero"/><path fill="#000000" fill-opacity="0.0" d="m778.0 6.0l0 512.0" fill-rule="evenodd"/><path stroke="#000000" stroke-width="1.0" stroke-linejoin="round" stroke-linecap="butt" d="m778.0 6.0l0 512.0" fill-rule="evenodd"/><path fill="#000000" fill-opacity="0.0" d="m127.33596 509.18634l394.86612 0" fill-rule="evenodd"/><path stroke="#000000" stroke-width="1.0" stroke-linejoin="round" stroke-linecap="butt" d="m127.33596 509.18634l388.86612 0" fill-rule="evenodd"/><path fill="#000000" stroke="#000000" stroke-width="1.0" stroke-linecap="butt" d="m516.2021 510.83807l4.538086 -1.6517334l-4.538086 -1.6517334z" fill-rule="evenodd"/><path fill="#000000" fill-opacity="0.0" d="m531.4514 481.44882l80.72443 0l0 42.015717l-80.72443 0z" fill-rule="evenodd"/><path fill="#000000" d="m545.2639 506.90005l0.234375 1.453125q-0.6875 0.140625 -1.234375 0.140625q-0.890625 0 -1.390625 -0.28125q-0.484375 -0.28125 -0.6875 -0.734375q-0.203125 -0.46875 -0.203125 -1.9375l0 -5.578125l-1.203125 0l0 -1.265625l1.203125 0l0 -2.390625l1.625 -0.984375l0 3.375l1.65625 0l0 1.265625l-1.65625 0l0 5.671875q0 0.6875 0.078125 0.890625q0.09375 0.203125 0.28125 0.328125q0.203125 0.109375 0.578125 0.109375q0.265625 0 0.71875 -0.0625zm1.6052246 -10.0l0 -1.890625l1.640625 0l0 1.890625l-1.640625 0zm0 11.46875l0 -9.671875l1.640625 0l0 9.671875l-1.640625 0zm4.1447754 0l0 -9.671875l1.46875 0l0 1.359375q0.453125 -0.71875 1.203125 -1.140625q0.765625 -0.4375 1.71875 -0.4375q1.078125 0 1.765625 0.453125q0.6875 0.4375 0.96875 1.234375q1.15625 -1.6875 2.984375 -1.6875q1.453125 0 2.21875 0.796875q0.78125 0.796875 0.78125 2.453125l0 6.640625l-1.640625 0l0 -6.09375q0 -0.984375 -0.15625 -1.40625q-0.15625 -0.4375 -0.578125 -0.703125q-0.421875 -0.265625 -0.984375 -0.265625q-1.015625 0 -1.6875 0.6875q-0.671875 0.671875 -0.671875 2.15625l0 5.625l-1.640625 0l0 -6.28125q0 -1.09375 -0.40625 -1.640625q-0.40625 -0.546875 -1.3125 -0.546875q-0.6875 0 -1.28125 0.359375q-0.59375 0.359375 -0.859375 1.0625q-0.25 0.703125 -0.25 2.03125l0 5.015625l-1.640625 0zm22.165833 -3.109375l1.6875 0.203125q-0.40625 1.484375 -1.484375 2.3125q-1.078125 0.8125 -2.765625 0.8125q-2.125 0 -3.375 -1.296875q-1.234375 -1.3125 -1.234375 -3.671875q0 -2.453125 1.25 -3.796875q1.265625 -1.34375 3.265625 -1.34375q1.9375 0 3.15625 1.328125q1.234375 1.3125 1.234375 3.703125q0 0.15625 0 0.4375l-7.21875 0q0.09375 1.59375 0.90625 2.453125q0.8125 0.84375 2.015625 0.84375q0.90625 0 1.546875 -0.46875q0.640625 -0.484375 1.015625 -1.515625zm-5.390625 -2.65625l5.40625 0q-0.109375 -1.21875 -0.625 -1.828125q-0.78125 -0.953125 -2.03125 -0.953125q-1.125 0 -1.90625 0.765625q-0.765625 0.75 -0.84375 2.015625z" fill-rule="nonzero"/><path fill="#000000" fill-opacity="0.0" d="m52.769028 24.0l544.0 0l0 50.078743l-544.0 0z" fill-rule="evenodd"/><path fill="#000000" d="m62.909653 51.491875l2.265625 -0.1875q0.15625 1.359375 0.734375 2.234375q0.59375 0.859375 1.828125 1.40625q1.234375 0.53125 2.78125 0.53125q1.375 0 2.421875 -0.40625q1.0625 -0.40625 1.5625 -1.109375q0.515625 -0.71875 0.515625 -1.5625q0 -0.859375 -0.5 -1.484375q-0.484375 -0.640625 -1.625 -1.078125q-0.71875 -0.28125 -3.21875 -0.875q-2.5 -0.609375 -3.5 -1.140625q-1.296875 -0.671875 -1.9375 -1.671875q-0.640625 -1.015625 -0.640625 -2.265625q0 -1.375 0.78125 -2.5625q0.78125 -1.203125 2.265625 -1.8125q1.5 -0.625 3.34375 -0.625q2.015625 0 3.546875 0.65625q1.546875 0.640625 2.375 1.90625q0.828125 1.25 0.890625 2.859375l-2.3125 0.171875q-0.171875 -1.71875 -1.25 -2.59375q-1.0625 -0.890625 -3.15625 -0.890625q-2.171875 0 -3.171875 0.796875q-1.0 0.796875 -1.0 1.921875q0 0.984375 0.703125 1.609375q0.703125 0.640625 3.625 1.296875q2.921875 0.65625 4.015625 1.15625q1.578125 0.734375 2.328125 1.859375q0.765625 1.109375 0.765625 2.5625q0 1.453125 -0.84375 2.734375q-0.828125 1.28125 -2.375 2.0q-1.546875 0.703125 -3.484375 0.703125q-2.46875 0 -4.140625 -0.71875q-1.65625 -0.71875 -2.609375 -2.15625q-0.9375 -1.4375 -0.984375 -3.265625zm26.409286 1.59375l2.296875 0.296875q-0.53125 2.015625 -2.015625 3.125q-1.46875 1.109375 -3.75 1.109375q-2.890625 0 -4.578125 -1.765625q-1.6875 -1.78125 -1.6875 -4.984375q0 -3.3125 1.703125 -5.140625q1.71875 -1.84375 4.4375 -1.84375q2.640625 0 4.296875 1.796875q1.671875 1.796875 1.671875 5.046875q0 0.203125 -0.015625 0.59375l-9.78125 0q0.109375 2.171875 1.203125 3.328125q1.109375 1.140625 2.765625 1.140625q1.21875 0 2.078125 -0.640625q0.875 -0.640625 1.375 -2.0625zm-7.3125 -3.59375l7.34375 0q-0.15625 -1.65625 -0.84375 -2.484375q-1.0625 -1.28125 -2.75 -1.28125q-1.546875 0 -2.59375 1.03125q-1.03125 1.015625 -1.15625 2.734375zm20.789429 12.859375l0 -6.421875q-0.53125 0.71875 -1.46875 1.203125q-0.921875 0.484375 -1.96875 0.484375q-2.34375 0 -4.03125 -1.859375q-1.6875 -1.875 -1.6875 -5.125q0 -1.984375 0.6875 -3.546875q0.6875 -1.578125 1.984375 -2.390625q1.3125 -0.8125 2.875 -0.8125q2.4375 0 3.828125 2.0625l0 -1.765625l2.0 0l0 18.171875l-2.21875 0zm-6.875 -11.640625q0 2.546875 1.0625 3.8125q1.078125 1.265625 2.5625 1.265625q1.421875 0 2.4375 -1.203125q1.03125 -1.203125 1.03125 -3.671875q0 -2.625 -1.09375 -3.9375q-1.078125 -1.328125 -2.53125 -1.328125q-1.453125 0 -2.46875 1.234375q-1.0 1.21875 -1.0 3.828125zm21.195679 6.609375l0 -1.921875q-1.53125 2.21875 -4.171875 2.21875q-1.15625 0 -2.171875 -0.4375q-1.0 -0.453125 -1.5 -1.125q-0.484375 -0.671875 -0.6875 -1.65625q-0.125 -0.65625 -0.125 -2.078125l0 -8.140625l2.21875 0l0 7.296875q0 1.734375 0.140625 2.34375q0.203125 0.875 0.875 1.375q0.6875 0.5 1.6875 0.5q1.015625 0 1.890625 -0.5q0.875 -0.515625 1.234375 -1.40625q0.375 -0.890625 0.375 -2.5625l0 -7.046875l2.21875 0l0 13.140625l-1.984375 0zm14.461304 -4.234375l2.296875 0.296875q-0.53125 2.015625 -2.015625 3.125q-1.46875 1.109375 -3.75 1.109375q-2.890625 0 -4.578125 -1.765625q-1.6875 -1.78125 -1.6875 -4.984375q0 -3.3125 1.703125 -5.140625q1.71875 -1.84375 4.4375 -1.84375q2.640625 0 4.296875 1.796875q1.671875 1.796875 1.671875 5.046875q0 0.203125 -0.015625 0.59375l-9.78125 0q0.109375 2.171875 1.203125 3.328125q1.109375 1.140625 2.765625 1.140625q1.21875 0 2.078125 -0.640625q0.875 -0.640625 1.375 -2.0625zm-7.3125 -3.59375l7.34375 0q-0.15625 -1.65625 -0.84375 -2.484375q-1.0625 -1.28125 -2.75 -1.28125q-1.546875 0 -2.59375 1.03125q-1.03125 1.015625 -1.15625 2.734375zm12.414429 7.828125l0 -13.140625l2.0 0l0 1.875q1.453125 -2.171875 4.1875 -2.171875q1.1875 0 2.171875 0.4375q1.0 0.421875 1.484375 1.125q0.5 0.6875 0.703125 1.640625q0.125 0.609375 0.125 2.15625l0 8.078125l-2.234375 0l0 -7.984375q0 -1.359375 -0.265625 -2.03125q-0.25 -0.6875 -0.90625 -1.078125q-0.65625 -0.40625 -1.546875 -0.40625q-1.421875 0 -2.46875 0.90625q-1.03125 0.890625 -1.03125 3.421875l0 7.171875l-2.21875 0zm22.648804 -4.8125l2.1875 0.28125q-0.34375 2.265625 -1.828125 3.546875q-1.484375 1.28125 -3.625 1.28125q-2.703125 0 -4.34375 -1.765625q-1.640625 -1.765625 -1.640625 -5.046875q0 -2.125 0.703125 -3.71875q0.71875 -1.59375 2.15625 -2.390625q1.4375 -0.8125 3.125 -0.8125q2.140625 0 3.5 1.09375q1.359375 1.078125 1.75 3.0625l-2.171875 0.34375q-0.296875 -1.328125 -1.09375 -1.984375q-0.78125 -0.671875 -1.890625 -0.671875q-1.6875 0 -2.734375 1.203125q-1.046875 1.203125 -1.046875 3.8125q0 2.640625 1.015625 3.84375q1.015625 1.203125 2.640625 1.203125q1.3125 0 2.1875 -0.796875q0.875 -0.8125 1.109375 -2.484375zm13.0859375 0.578125l2.296875 0.296875q-0.53125 2.015625 -2.015625 3.125q-1.46875 1.109375 -3.75 1.109375q-2.890625 0 -4.578125 -1.765625q-1.6875 -1.78125 -1.6875 -4.984375q0 -3.3125 1.703125 -5.140625q1.71875 -1.84375 4.4375 -1.84375q2.640625 0 4.296875 1.796875q1.671875 1.796875 1.671875 5.046875q0 0.203125 -0.015625 0.59375l-9.78125 0q0.109375 2.171875 1.203125 3.328125q1.109375 1.140625 2.765625 1.140625q1.21875 0 2.078125 -0.640625q0.875 -0.640625 1.375 -2.0625zm-7.3125 -3.59375l7.34375 0q-0.15625 -1.65625 -0.84375 -2.484375q-1.0625 -1.28125 -2.75 -1.28125q-1.546875 0 -2.59375 1.03125q-1.03125 1.015625 -1.15625 2.734375zm19.73265 7.828125l0 -18.125l6.25 0q2.109375 0 3.21875 0.25q1.5625 0.359375 2.671875 1.296875q1.421875 1.21875 2.125 3.109375q0.71875 1.875 0.71875 4.296875q0 2.078125 -0.484375 3.671875q-0.46875 1.59375 -1.234375 2.640625q-0.75 1.046875 -1.65625 1.640625q-0.890625 0.59375 -2.15625 0.90625q-1.265625 0.3125 -2.90625 0.3125l-6.546875 0zm2.40625 -2.140625l3.859375 0q1.796875 0 2.8125 -0.328125q1.03125 -0.34375 1.640625 -0.9375q0.84375 -0.859375 1.3125 -2.296875q0.484375 -1.4375 0.484375 -3.5q0 -2.84375 -0.9375 -4.359375q-0.921875 -1.53125 -2.265625 -2.0625q-0.96875 -0.359375 -3.109375 -0.359375l-3.796875 0l0 13.84375zm24.166168 0.515625q-1.234375 1.0625 -2.375 1.5q-1.140625 0.421875 -2.453125 0.421875q-2.171875 0 -3.328125 -1.046875q-1.15625 -1.0625 -1.15625 -2.71875q0 -0.953125 0.4375 -1.75q0.4375 -0.796875 1.140625 -1.28125q0.71875 -0.484375 1.609375 -0.734375q0.65625 -0.171875 1.96875 -0.328125q2.703125 -0.328125 3.96875 -0.765625q0.015625 -0.46875 0.015625 -0.59375q0 -1.359375 -0.625 -1.90625q-0.859375 -0.765625 -2.53125 -0.765625q-1.578125 0 -2.328125 0.5625q-0.75 0.546875 -1.109375 1.9375l-2.171875 -0.296875q0.296875 -1.390625 0.96875 -2.25q0.6875 -0.859375 1.96875 -1.328125q1.296875 -0.46875 2.984375 -0.46875q1.6875 0 2.734375 0.40625q1.046875 0.390625 1.546875 1.0q0.5 0.59375 0.6875 1.5q0.125 0.578125 0.125 2.0625l0 2.96875q0 3.09375 0.140625 3.921875q0.140625 0.828125 0.5625 1.578125l-2.328125 0q-0.34375 -0.6875 -0.453125 -1.625zm-0.1875 -4.96875q-1.203125 0.5 -3.625 0.84375q-1.375 0.203125 -1.953125 0.453125q-0.5625 0.234375 -0.875 0.71875q-0.296875 0.46875 -0.296875 1.046875q0 0.890625 0.671875 1.484375q0.671875 0.59375 1.96875 0.59375q1.28125 0 2.28125 -0.5625q1.0 -0.5625 1.484375 -1.53125q0.34375 -0.75 0.34375 -2.234375l0 -0.8125zm10.570679 4.609375l0.3125 1.953125q-0.9375 0.203125 -1.671875 0.203125q-1.21875 0 -1.890625 -0.375q-0.65625 -0.390625 -0.9375 -1.015625q-0.265625 -0.625 -0.265625 -2.625l0 -7.5625l-1.640625 0l0 -1.734375l1.640625 0l0 -3.25l2.21875 -1.328125l0 4.578125l2.234375 0l0 1.734375l-2.234375 0l0 7.6875q0 0.953125 0.109375 1.234375q0.125 0.265625 0.390625 0.421875q0.265625 0.15625 0.75 0.15625q0.375 0 0.984375 -0.078125zm10.740097 0.359375q-1.234375 1.0625 -2.375 1.5q-1.140625 0.421875 -2.453125 0.421875q-2.171875 0 -3.328125 -1.046875q-1.15625 -1.0625 -1.15625 -2.71875q0 -0.953125 0.4375 -1.75q0.4375 -0.796875 1.140625 -1.28125q0.71875 -0.484375 1.609375 -0.734375q0.65625 -0.171875 1.96875 -0.328125q2.703125 -0.328125 3.96875 -0.765625q0.015625 -0.46875 0.015625 -0.59375q0 -1.359375 -0.625 -1.90625q-0.859375 -0.765625 -2.53125 -0.765625q-1.578125 0 -2.328125 0.5625q-0.75 0.546875 -1.109375 1.9375l-2.171875 -0.296875q0.296875 -1.390625 0.96875 -2.25q0.6875 -0.859375 1.96875 -1.328125q1.296875 -0.46875 2.984375 -0.46875q1.6875 0 2.734375 0.40625q1.046875 0.390625 1.546875 1.0q0.5 0.59375 0.6875 1.5q0.125 0.578125 0.125 2.0625l0 2.96875q0 3.09375 0.140625 3.921875q0.140625 0.828125 0.5625 1.578125l-2.328125 0q-0.34375 -0.6875 -0.453125 -1.625zm-0.1875 -4.96875q-1.203125 0.5 -3.625 0.84375q-1.375 0.203125 -1.953125 0.453125q-0.5625 0.234375 -0.875 0.71875q-0.296875 0.46875 -0.296875 1.046875q0 0.890625 0.671875 1.484375q0.671875 0.59375 1.96875 0.59375q1.28125 0 2.28125 -0.5625q1.0 -0.5625 1.484375 -1.53125q0.34375 -0.75 0.34375 -2.234375l0 -0.8125z" fill-rule="nonzero"/><path fill="#000000" fill-opacity="0.0" d="m17.4042 149.29659l96.850395 0l0 42.015747l-96.850395 0z" fill-rule="evenodd"/><path fill="#e06666" d="m27.87295 176.21658l0 -13.359375l9.656248 0l0 1.578125l-7.874998 0l0 4.09375l7.374998 0l0 1.5625l-7.374998 0l0 4.546875l8.187498 0l0 1.578125l-9.968748 0zm12.209196 0l0 -9.671875l1.46875 0l0 1.375q1.0625 -1.59375 3.078125 -1.59375q0.875 0 1.609375 0.3125q0.734375 0.3125 1.09375 0.828125q0.375 0.5 0.515625 1.203125q0.09375 0.453125 0.09375 1.59375l0 5.953125l-1.640625 0l0 -5.890625q0 -1.0 -0.203125 -1.484375q-0.1875 -0.5 -0.671875 -0.796875q-0.484375 -0.296875 -1.140625 -0.296875q-1.046875 0 -1.8125 0.671875q-0.75 0.65625 -0.75 2.515625l0 5.28125l-1.640625 0zm13.953842 -1.46875l0.234375 1.453125q-0.6875 0.140625 -1.234375 0.140625q-0.890625 0 -1.390625 -0.28125q-0.484375 -0.28125 -0.6875 -0.734375q-0.203125 -0.46875 -0.203125 -1.9375l0 -5.578125l-1.203125 0l0 -1.265625l1.203125 0l0 -2.390625l1.625 -0.984375l0 3.375l1.65625 0l0 1.265625l-1.65625 0l0 5.671875q0 0.6875 0.078125 0.890625q0.09375 0.203125 0.28125 0.328125q0.203125 0.109375 0.578125 0.109375q0.265625 0 0.71875 -0.0625zm1.6051788 -10.0l0 -1.890625l1.640625 0l0 1.890625l-1.640625 0zm0 11.46875l0 -9.671875l1.640625 0l0 9.671875l-1.640625 0zm7.722946 -1.46875l0.234375 1.453125q-0.6875 0.140625 -1.234375 0.140625q-0.890625 0 -1.390625 -0.28125q-0.484375 -0.28125 -0.6875 -0.734375q-0.203125 -0.46875 -0.203125 -1.9375l0 -5.578125l-1.203125 0l0 -1.265625l1.203125 0l0 -2.390625l1.625 -0.984375l0 3.375l1.65625 0l0 1.265625l-1.65625 0l0 5.671875q0 0.6875 0.078125 0.890625q0.09375 0.203125 0.28125 0.328125q0.203125 0.109375 0.578125 0.109375q0.265625 0 0.71875 -0.0625zm1.5270538 5.1875l-0.1875 -1.53125q0.546875 0.140625 0.9375 0.140625q0.546875 0 0.875 -0.1875q0.328125 -0.171875 0.546875 -0.5q0.15625 -0.25 0.5 -1.21875q0.046875 -0.140625 0.140625 -0.40625l-3.671875 -9.6875l1.765625 0l2.015625 5.59375q0.390625 1.078125 0.703125 2.25q0.28125 -1.125 0.671875 -2.203125l2.078125 -5.640625l1.640625 0l-3.6875 9.828125q-0.59375 1.609375 -0.921875 2.203125q-0.4375 0.8125 -1.0 1.1875q-0.5625 0.375 -1.34375 0.375q-0.484375 0 -1.0625 -0.203125zm20.308304 -3.71875l-1.640625 0l0 -10.453125q-0.59375 0.5625 -1.5625 1.140625q-0.953125 0.5625 -1.71875 0.84375l0 -1.59375q1.375 -0.640625 2.40625 -1.5625q1.03125 -0.921875 1.453125 -1.78125l1.0625 0l0 13.40625z" fill-rule="nonzero"/><path fill="#000000" fill-opacity="0.0" d="m17.4042 240.27383l96.850395 0l0 42.015747l-96.850395 0z" fill-rule="evenodd"/><path fill="#93c47d" d="m27.87295 267.19385l0 -13.35939l9.656248 0l0 1.578125l-7.874998 0l0 4.0937653l7.374998 0l0 1.5625l-7.374998 0l0 4.546875l8.187498 0l0 1.578125l-9.968748 0zm12.209196 0l0 -9.671875l1.46875 0l0 1.375q1.0625 -1.59375 3.078125 -1.59375q0.875 0 1.609375 0.3125q0.734375 0.3125 1.09375 0.828125q0.375 0.5 0.515625 1.203125q0.09375 0.453125 0.09375 1.59375l0 5.953125l-1.640625 0l0 -5.890625q0 -1.0 -0.203125 -1.484375q-0.1875 -0.5 -0.671875 -0.796875q-0.484375 -0.296875 -1.140625 -0.296875q-1.046875 0 -1.8125 0.671875q-0.75 0.65625 -0.75 2.515625l0 5.28125l-1.640625 0zm13.953842 -1.46875l0.234375 1.453125q-0.6875 0.140625 -1.234375 0.140625q-0.890625 0 -1.390625 -0.28125q-0.484375 -0.28125 -0.6875 -0.734375q-0.203125 -0.46875 -0.203125 -1.9375l0 -5.578125l-1.203125 0l0 -1.265625l1.203125 0l0 -2.3906403l1.625 -0.984375l0 3.3750153l1.65625 0l0 1.265625l-1.65625 0l0 5.671875q0 0.6875 0.078125 0.890625q0.09375 0.203125 0.28125 0.328125q0.203125 0.109375 0.578125 0.109375q0.265625 0 0.71875 -0.0625zm1.6051788 -10.000015l0 -1.890625l1.640625 0l0 1.890625l-1.640625 0zm0 11.468765l0 -9.671875l1.640625 0l0 9.671875l-1.640625 0zm7.722946 -1.46875l0.234375 1.453125q-0.6875 0.140625 -1.234375 0.140625q-0.890625 0 -1.390625 -0.28125q-0.484375 -0.28125 -0.6875 -0.734375q-0.203125 -0.46875 -0.203125 -1.9375l0 -5.578125l-1.203125 0l0 -1.265625l1.203125 0l0 -2.3906403l1.625 -0.984375l0 3.3750153l1.65625 0l0 1.265625l-1.65625 0l0 5.671875q0 0.6875 0.078125 0.890625q0.09375 0.203125 0.28125 0.328125q0.203125 0.109375 0.578125 0.109375q0.265625 0 0.71875 -0.0625zm1.5270538 5.1875l-0.1875 -1.53125q0.546875 0.140625 0.9375 0.140625q0.546875 0 0.875 -0.1875q0.328125 -0.171875 0.546875 -0.5q0.15625 -0.25 0.5 -1.21875q0.046875 -0.140625 0.140625 -0.40625l-3.671875 -9.6875l1.765625 0l2.015625 5.59375q0.390625 1.078125 0.703125 2.25q0.28125 -1.125 0.671875 -2.203125l2.078125 -5.640625l1.640625 0l-3.6875 9.828125q-0.59375 1.609375 -0.921875 2.203125q-0.4375 0.8125 -1.0 1.1875q-0.5625 0.375 -1.34375 0.375q-0.484375 0 -1.0625 -0.203125zm22.745804 -5.296875l0 1.578125l-8.828125 0q-0.015625 -0.59375 0.1875 -1.140625q0.34375 -0.90625 1.078125 -1.78125q0.75 -0.875 2.15625 -2.015625q2.171875 -1.78125 2.9375 -2.828125q0.765625 -1.046875 0.765625 -1.96875q0 -0.984375 -0.703125 -1.6406403q-0.6875 -0.671875 -1.8125 -0.671875q-1.1875 0 -1.90625 0.71875q-0.703125 0.70314026 -0.703125 1.9531403l-1.6875 -0.171875q0.171875 -1.8906403 1.296875 -2.8750153q1.140625 -0.984375 3.03125 -0.984375q1.921875 0 3.046875 1.0625q1.125 1.0625 1.125 2.6406403q0 0.796875 -0.328125 1.578125q-0.328125 0.78125 -1.09375 1.640625q-0.75 0.84375 -2.53125 2.34375q-1.46875 1.234375 -1.890625 1.6875q-0.421875 0.4375 -0.6875 0.875l6.546875 0z" fill-rule="nonzero"/><path fill="#000000" fill-opacity="0.0" d="m17.4042 331.2511l96.850395 0l0 42.015747l-96.850395 0z" fill-rule="evenodd"/><path fill="#3d85c6" d="m27.87295 358.17108l0 -13.359375l9.656248 0l0 1.578125l-7.874998 0l0 4.09375l7.374998 0l0 1.5625l-7.374998 0l0 4.546875l8.187498 0l0 1.578125l-9.968748 0zm12.209196 0l0 -9.671875l1.46875 0l0 1.375q1.0625 -1.59375 3.078125 -1.59375q0.875 0 1.609375 0.3125q0.734375 0.3125 1.09375 0.828125q0.375 0.5 0.515625 1.203125q0.09375 0.453125 0.09375 1.59375l0 5.953125l-1.640625 0l0 -5.890625q0 -1.0 -0.203125 -1.484375q-0.1875 -0.5 -0.671875 -0.796875q-0.484375 -0.296875 -1.140625 -0.296875q-1.046875 0 -1.8125 0.671875q-0.75 0.65625 -0.75 2.515625l0 5.28125l-1.640625 0zm13.953842 -1.46875l0.234375 1.453125q-0.6875 0.140625 -1.234375 0.140625q-0.890625 0 -1.390625 -0.28125q-0.484375 -0.28125 -0.6875 -0.734375q-0.203125 -0.46875 -0.203125 -1.9375l0 -5.578125l-1.203125 0l0 -1.265625l1.203125 0l0 -2.390625l1.625 -0.984375l0 3.375l1.65625 0l0 1.265625l-1.65625 0l0 5.671875q0 0.6875 0.078125 0.890625q0.09375 0.203125 0.28125 0.328125q0.203125 0.109375 0.578125 0.109375q0.265625 0 0.71875 -0.0625zm1.6051788 -10.0l0 -1.890625l1.640625 0l0 1.890625l-1.640625 0zm0 11.46875l0 -9.671875l1.640625 0l0 9.671875l-1.640625 0zm7.722946 -1.46875l0.234375 1.453125q-0.6875 0.140625 -1.234375 0.140625q-0.890625 0 -1.390625 -0.28125q-0.484375 -0.28125 -0.6875 -0.734375q-0.203125 -0.46875 -0.203125 -1.9375l0 -5.578125l-1.203125 0l0 -1.265625l1.203125 0l0 -2.390625l1.625 -0.984375l0 3.375l1.65625 0l0 1.265625l-1.65625 0l0 5.671875q0 0.6875 0.078125 0.890625q0.09375 0.203125 0.28125 0.328125q0.203125 0.109375 0.578125 0.109375q0.265625 0 0.71875 -0.0625zm1.5270538 5.1875l-0.1875 -1.53125q0.546875 0.140625 0.9375 0.140625q0.546875 0 0.875 -0.1875q0.328125 -0.171875 0.546875 -0.5q0.15625 -0.25 0.5 -1.21875q0.046875 -0.140625 0.140625 -0.40625l-3.671875 -9.6875l1.765625 0l2.015625 5.59375q0.390625 1.078125 0.703125 2.25q0.28125 -1.125 0.671875 -2.203125l2.078125 -5.640625l1.640625 0l-3.6875 9.828125q-0.59375 1.609375 -0.921875 2.203125q-0.4375 0.8125 -1.0 1.1875q-0.5625 0.375 -1.34375 0.375q-0.484375 0 -1.0625 -0.203125zm14.136429 -7.25l1.640625 -0.21875q0.28125 1.40625 0.953125 2.015625q0.6875 0.609375 1.65625 0.609375q1.15625 0 1.953125 -0.796875q0.796875 -0.796875 0.796875 -1.984375q0 -1.125 -0.734375 -1.859375q-0.734375 -0.734375 -1.875 -0.734375q-0.46875 0 -1.15625 0.171875l0.1875 -1.4375q0.15625 0.015625 0.265625 0.015625q1.046875 0 1.875 -0.546875q0.84375 -0.546875 0.84375 -1.671875q0 -0.90625 -0.609375 -1.5q-0.609375 -0.59375 -1.578125 -0.59375q-0.953125 0 -1.59375 0.609375q-0.640625 0.59375 -0.8125 1.796875l-1.640625 -0.296875q0.296875 -1.640625 1.359375 -2.546875q1.0625 -0.90625 2.65625 -0.90625q1.09375 0 2.0 0.46875q0.921875 0.46875 1.40625 1.28125q0.5 0.8125 0.5 1.71875q0 0.859375 -0.46875 1.578125q-0.46875 0.703125 -1.375 1.125q1.1875 0.28125 1.84375 1.140625q0.65625 0.859375 0.65625 2.15625q0 1.734375 -1.28125 2.953125q-1.265625 1.21875 -3.21875 1.21875q-1.765625 0 -2.921875 -1.046875q-1.15625 -1.046875 -1.328125 -2.71875z" fill-rule="nonzero"/><path fill="#000000" fill-opacity="0.0" d="m17.4042 422.22833l96.850395 0l0 42.015747l-96.850395 0z" fill-rule="evenodd"/><path fill="#e69138" d="m27.87295 449.14835l0 -13.359375l9.656248 0l0 1.578125l-7.874998 0l0 4.09375l7.374998 0l0 1.5625l-7.374998 0l0 4.546875l8.187498 0l0 1.578125l-9.968748 0zm12.209196 0l0 -9.671875l1.46875 0l0 1.375q1.0625 -1.59375 3.078125 -1.59375q0.875 0 1.609375 0.3125q0.734375 0.3125 1.09375 0.828125q0.375 0.5 0.515625 1.203125q0.09375 0.453125 0.09375 1.59375l0 5.953125l-1.640625 0l0 -5.890625q0 -1.0 -0.203125 -1.484375q-0.1875 -0.5 -0.671875 -0.796875q-0.484375 -0.296875 -1.140625 -0.296875q-1.046875 0 -1.8125 0.671875q-0.75 0.65625 -0.75 2.515625l0 5.28125l-1.640625 0zm13.953842 -1.46875l0.234375 1.453125q-0.6875 0.140625 -1.234375 0.140625q-0.890625 0 -1.390625 -0.28125q-0.484375 -0.28125 -0.6875 -0.734375q-0.203125 -0.46875 -0.203125 -1.9375l0 -5.578125l-1.203125 0l0 -1.265625l1.203125 0l0 -2.390625l1.625 -0.984375l0 3.375l1.65625 0l0 1.265625l-1.65625 0l0 5.671875q0 0.6875 0.078125 0.890625q0.09375 0.203125 0.28125 0.328125q0.203125 0.109375 0.578125 0.109375q0.265625 0 0.71875 -0.0625zm1.6051788 -10.0l0 -1.890625l1.640625 0l0 1.890625l-1.640625 0zm0 11.46875l0 -9.671875l1.640625 0l0 9.671875l-1.640625 0zm7.722946 -1.46875l0.234375 1.453125q-0.6875 0.140625 -1.234375 0.140625q-0.890625 0 -1.390625 -0.28125q-0.484375 -0.28125 -0.6875 -0.734375q-0.203125 -0.46875 -0.203125 -1.9375l0 -5.578125l-1.203125 0l0 -1.265625l1.203125 0l0 -2.390625l1.625 -0.984375l0 3.375l1.65625 0l0 1.265625l-1.65625 0l0 5.671875q0 0.6875 0.078125 0.890625q0.09375 0.203125 0.28125 0.328125q0.203125 0.109375 0.578125 0.109375q0.265625 0 0.71875 -0.0625zm1.5270538 5.1875l-0.1875 -1.53125q0.546875 0.140625 0.9375 0.140625q0.546875 0 0.875 -0.1875q0.328125 -0.171875 0.546875 -0.5q0.15625 -0.25 0.5 -1.21875q0.046875 -0.140625 0.140625 -0.40625l-3.671875 -9.6875l1.765625 0l2.015625 5.59375q0.390625 1.078125 0.703125 2.25q0.28125 -1.125 0.671875 -2.203125l2.078125 -5.640625l1.640625 0l-3.6875 9.828125q-0.59375 1.609375 -0.921875 2.203125q-0.4375 0.8125 -1.0 1.1875q-0.5625 0.375 -1.34375 0.375q-0.484375 0 -1.0625 -0.203125zm19.386429 -3.71875l0 -3.203125l-5.796875 0l0 -1.5l6.09375 -8.65625l1.34375 0l0 8.65625l1.796875 0l0 1.5l-1.796875 0l0 3.203125l-1.640625 0zm0 -4.703125l0 -6.015625l-4.1875 6.015625l4.1875 0z" fill-rule="nonzero"/><path fill="#ea9999" d="m163.77428 167.5853l0 0c0 -5.940323 5.3020782 -10.755905 11.842514 -10.755905l0 0c6.540451 0 11.842529 4.8155823 11.842529 10.755905l0 0c0 5.940323 -5.3020782 10.755905 -11.842529 10.755905l0 0c-6.540436 0 -11.842514 -4.8155823 -11.842514 -10.755905z" fill-rule="evenodd"/><path stroke="#ea9999" stroke-width="1.0" stroke-linejoin="round" stroke-linecap="butt" d="m163.77428 167.5853l0 0c0 -5.940323 5.3020782 -10.755905 11.842514 -10.755905l0 0c6.540451 0 11.842529 4.8155823 11.842529 10.755905l0 0c0 5.940323 -5.3020782 10.755905 -11.842529 10.755905l0 0c-6.540436 0 -11.842514 -4.8155823 -11.842514 -10.755905z" fill-rule="evenodd"/><path fill="#b6d7a8" d="m163.77428 261.28085l0 0c0 -5.940338 5.3020782 -10.75592 11.842514 -10.75592l0 0c6.540451 0 11.842529 4.8155823 11.842529 10.75592l0 0c0 5.9403076 -5.3020782 10.75589 -11.842529 10.75589l0 0c-6.540436 0 -11.842514 -4.8155823 -11.842514 -10.75589z" fill-rule="evenodd"/><path stroke="#b6d7a8" stroke-width="1.0" stroke-linejoin="round" stroke-linecap="butt" d="m163.77428 261.28085l0 0c0 -5.940338 5.3020782 -10.75592 11.842514 -10.75592l0 0c6.540451 0 11.842529 4.8155823 11.842529 10.75592l0 0c0 5.9403076 -5.3020782 10.75589 -11.842529 10.75589l0 0c-6.540436 0 -11.842514 -4.8155823 -11.842514 -10.75589z" fill-rule="evenodd"/><path fill="#6fa8dc" d="m233.5853 349.44357l0 0c0 -5.940338 5.3020782 -10.75592 11.842529 -10.75592l0 0c6.540436 0 11.842529 4.8155823 11.842529 10.75592l0 0c0 5.9403076 -5.3020935 10.75589 -11.842529 10.75589l0 0c-6.540451 0 -11.842529 -4.8155823 -11.842529 -10.75589z" fill-rule="evenodd"/><path stroke="#6fa8dc" stroke-width="1.0" stroke-linejoin="round" stroke-linecap="butt" d="m233.5853 349.44357l0 0c0 -5.940338 5.3020782 -10.75592 11.842529 -10.75592l0 0c6.540436 0 11.842529 4.8155823 11.842529 10.75592l0 0c0 5.9403076 -5.3020935 10.75589 -11.842529 10.75589l0 0c-6.540451 0 -11.842529 -4.8155823 -11.842529 -10.75589z" fill-rule="evenodd"/><path fill="#f6b26b" d="m233.5853 443.1391l0 0c0 -5.9403076 5.3020782 -10.75589 11.842529 -10.75589l0 0c6.540436 0 11.842529 4.8155823 11.842529 10.75589l0 0c0 5.940338 -5.3020935 10.75592 -11.842529 10.75592l0 0c-6.540451 0 -11.842529 -4.8155823 -11.842529 -10.75592z" fill-rule="evenodd"/><path stroke="#f6b26b" stroke-width="1.0" stroke-linejoin="round" stroke-linecap="butt" d="m233.5853 443.1391l0 0c0 -5.9403076 5.3020782 -10.75589 11.842529 -10.75589l0 0c6.540436 0 11.842529 4.8155823 11.842529 10.75589l0 0c0 5.940338 -5.3020935 10.75592 -11.842529 10.75592l0 0c-6.540451 0 -11.842529 -4.8155823 -11.842529 -10.75592z" fill-rule="evenodd"/><path fill="#6fa8dc" d="m308.31235 349.44357l0 0c0 -5.940338 5.302063 -10.75592 11.842499 -10.75592l0 0c6.5404663 0 11.842529 4.8155823 11.842529 10.75592l0 0c0 5.9403076 -5.302063 10.75589 -11.842529 10.75589l0 0c-6.540436 0 -11.842499 -4.8155823 -11.842499 -10.75589z" fill-rule="evenodd"/><path stroke="#6fa8dc" stroke-width="1.0" stroke-linejoin="round" stroke-linecap="butt" d="m308.31235 349.44357l0 0c0 -5.940338 5.302063 -10.75592 11.842499 -10.75592l0 0c6.5404663 0 11.842529 4.8155823 11.842529 10.75592l0 0c0 5.9403076 -5.302063 10.75589 -11.842529 10.75589l0 0c-6.540436 0 -11.842499 -4.8155823 -11.842499 -10.75589z" fill-rule="evenodd"/><path fill="#b6d7a8" d="m308.77954 261.28085l0 0c0 -5.940338 5.302063 -10.75592 11.842499 -10.75592l0 0c6.540436 0 11.842529 4.8155823 11.842529 10.75592l0 0c0 5.9403076 -5.3020935 10.75589 -11.842529 10.75589l0 0c-6.540436 0 -11.842499 -4.8155823 -11.842499 -10.75589z" fill-rule="evenodd"/><path stroke="#b6d7a8" stroke-width="1.0" stroke-linejoin="round" stroke-linecap="butt" d="m308.77954 261.28085l0 0c0 -5.940338 5.302063 -10.75592 11.842499 -10.75592l0 0c6.540436 0 11.842529 4.8155823 11.842529 10.75592l0 0c0 5.9403076 -5.3020935 10.75589 -11.842529 10.75589l0 0c-6.540436 0 -11.842499 -4.8155823 -11.842499 -10.75589z" fill-rule="evenodd"/><path fill="#f6b26b" d="m438.81366 443.1391l0 0c0 -5.9403076 5.302063 -10.75589 11.842499 -10.75589l0 0c6.5404663 0 11.842529 4.8155823 11.842529 10.75589l0 0c0 5.940338 -5.302063 10.75592 -11.842529 10.75592l0 0c-6.540436 0 -11.842499 -4.8155823 -11.842499 -10.75592z" fill-rule="evenodd"/><path stroke="#f6b26b" stroke-width="1.0" stroke-linejoin="round" stroke-linecap="butt" d="m438.81366 443.1391l0 0c0 -5.9403076 5.302063 -10.75589 11.842499 -10.75589l0 0c6.5404663 0 11.842529 4.8155823 11.842529 10.75589l0 0c0 5.940338 -5.302063 10.75592 -11.842529 10.75592l0 0c-6.540436 0 -11.842499 -4.8155823 -11.842499 -10.75592z" fill-rule="evenodd"/><path fill="#ea9999" d="m438.81366 167.5853l0 0c0 -5.940323 5.302063 -10.755905 11.842499 -10.755905l0 0c6.5404663 0 11.842529 4.8155823 11.842529 10.755905l0 0c0 5.940323 -5.302063 10.755905 -11.842529 10.755905l0 0c-6.540436 0 -11.842499 -4.8155823 -11.842499 -10.755905z" fill-rule="evenodd"/><path stroke="#ea9999" stroke-width="1.0" stroke-linejoin="round" stroke-linecap="butt" d="m438.81366 167.5853l0 0c0 -5.940323 5.302063 -10.755905 11.842499 -10.755905l0 0c6.5404663 0 11.842529 4.8155823 11.842529 10.755905l0 0c0 5.940323 -5.302063 10.755905 -11.842529 10.755905l0 0c-6.540436 0 -11.842499 -4.8155823 -11.842499 -10.755905z" fill-rule="evenodd"/><path fill="#000000" fill-opacity="0.0" d="m170.38321 489.46982l0 18.992126" fill-rule="evenodd"/><path stroke="#000000" stroke-width="1.0" stroke-linejoin="round" stroke-linecap="butt" d="m170.38321 489.46982l0 18.992126" fill-rule="evenodd"/><path fill="#000000" fill-opacity="0.0" d="m242.81102 489.46982l0 18.992126" fill-rule="evenodd"/><path stroke="#000000" stroke-width="1.0" stroke-linejoin="round" stroke-linecap="butt" d="m242.81102 489.46982l0 18.992126" fill-rule="evenodd"/><path fill="#000000" fill-opacity="0.0" d="m322.15222 489.46982l0 18.992126" fill-rule="evenodd"/><path stroke="#000000" stroke-width="1.0" stroke-linejoin="round" stroke-linecap="butt" d="m322.15222 489.46982l0 18.992126" fill-rule="evenodd"/><path fill="#000000" fill-opacity="0.0" d="m448.03937 489.46982l0 18.992126" fill-rule="evenodd"/><path stroke="#000000" stroke-width="1.0" stroke-linejoin="round" stroke-linecap="butt" d="m448.03937 489.46982l0 18.992126" fill-rule="evenodd"/><path fill="#000000" fill-opacity="0.0" d="m982.0341 482.9908l0 18.992126" fill-rule="evenodd"/><path stroke="#000000" stroke-width="1.0" stroke-linejoin="round" stroke-linecap="butt" d="m982.0341 482.9908l0 18.992126" fill-rule="evenodd"/><path fill="#000000" fill-opacity="0.0" d="m1054.4619 482.9908l0 18.992126" fill-rule="evenodd"/><path stroke="#000000" stroke-width="1.0" stroke-linejoin="round" stroke-linecap="butt" d="m1054.4619 482.9908l0 18.992126" fill-rule="evenodd"/><path fill="#000000" fill-opacity="0.0" d="m1133.8031 482.9908l0 18.992126" fill-rule="evenodd"/><path stroke="#000000" stroke-width="1.0" stroke-linejoin="round" stroke-linecap="butt" d="m1133.8031 482.9908l0 18.992126" fill-rule="evenodd"/><path fill="#000000" fill-opacity="0.0" d="m1259.6903 482.9908l0 18.992126" fill-rule="evenodd"/><path stroke="#000000" stroke-width="1.0" stroke-linejoin="round" stroke-linecap="butt" d="m1259.6903 482.9908l0 18.992126" fill-rule="evenodd"/><path fill="#000000" fill-opacity="0.0" d="m154.0 503.0l333.29135 0l0 42.015747l-333.29135 0z" fill-rule="evenodd"/><path fill="#000000" d="m167.8125 528.45123l0.234375 1.453125q-0.6875 0.140625 -1.234375 0.140625q-0.890625 0 -1.390625 -0.28125q-0.484375 -0.28125 -0.6875 -0.734375q-0.203125 -0.46875 -0.203125 -1.9375l0 -5.578125l-1.203125 0l0 -1.265625l1.203125 0l0 -2.390625l1.625 -0.984375l0 3.375l1.65625 0l0 1.265625l-1.65625 0l0 5.671875q0 0.6875 0.078125 0.890625q0.09375 0.203125 0.28125 0.328125q0.203125 0.109375 0.578125 0.109375q0.265625 0 0.71875 -0.0625zm7.323929 1.46875l-1.640625 0l0 -10.453125q-0.59375 0.5625 -1.5625 1.140625q-0.953125 0.5625 -1.71875 0.84375l0 -1.59375q1.375 -0.640625 2.40625 -1.5625q1.03125 -0.921875 1.453125 -1.78125l1.0625 0l0 13.40625zm65.251434 -1.46875l0.234375 1.453125q-0.6875 0.140625 -1.234375 0.140625q-0.890625 0 -1.390625 -0.28125q-0.484375 -0.28125 -0.6875 -0.734375q-0.203125 -0.46875 -0.203125 -1.9375l0 -5.578125l-1.203125 0l0 -1.265625l1.203125 0l0 -2.390625l1.625 -0.984375l0 3.375l1.65625 0l0 1.265625l-1.65625 0l0 5.671875q0 0.6875 0.078125 0.890625q0.09375 0.203125 0.28125 0.328125q0.203125 0.109375 0.578125 0.109375q0.265625 0 0.71875 -0.0625zm9.761429 -0.109375l0 1.578125l-8.828125 0q-0.015625 -0.59375 0.1875 -1.140625q0.34375 -0.90625 1.078125 -1.78125q0.75 -0.875 2.15625 -2.015625q2.171875 -1.78125 2.9375 -2.828125q0.765625 -1.046875 0.765625 -1.96875q0 -0.984375 -0.703125 -1.640625q-0.6875 -0.671875 -1.8125 -0.671875q-1.1875 0 -1.90625 0.71875q-0.703125 0.703125 -0.703125 1.953125l-1.6875 -0.171875q0.171875 -1.890625 1.296875 -2.875q1.140625 -0.984375 3.03125 -0.984375q1.921875 0 3.046875 1.0625q1.125 1.0625 1.125 2.640625q0 0.796875 -0.328125 1.578125q-0.328125 0.78125 -1.09375 1.640625q-0.75 0.84375 -2.53125 2.34375q-1.46875 1.234375 -1.890625 1.6875q-0.421875 0.4375 -0.6875 0.875l6.546875 0zm73.18054 0.109375l0.234375 1.453125q-0.6875 0.140625 -1.234375 0.140625q-0.890625 0 -1.390625 -0.28125q-0.484375 -0.28125 -0.6875 -0.734375q-0.203125 -0.46875 -0.203125 -1.9375l0 -5.578125l-1.203125 0l0 -1.265625l1.203125 0l0 -2.390625l1.625 -0.984375l0 3.375l1.65625 0l0 1.265625l-1.65625 0l0 5.671875q0 0.6875 0.078125 0.890625q0.09375 0.203125 0.28125 0.328125q0.203125 0.109375 0.578125 0.109375q0.265625 0 0.71875 -0.0625zm1.1520386 -2.0625l1.640625 -0.21875q0.28125 1.40625 0.953125 2.015625q0.6875 0.609375 1.65625 0.609375q1.15625 0 1.953125 -0.796875q0.796875 -0.796875 0.796875 -1.984375q0 -1.125 -0.734375 -1.859375q-0.734375 -0.734375 -1.875 -0.734375q-0.46875 0 -1.15625 0.171875l0.1875 -1.4375q0.15625 0.015625 0.265625 0.015625q1.046875 0 1.875 -0.546875q0.84375 -0.546875 0.84375 -1.671875q0 -0.90625 -0.609375 -1.5q-0.609375 -0.59375 -1.578125 -0.59375q-0.953125 0 -1.59375 0.609375q-0.640625 0.59375 -0.8125 1.796875l-1.640625 -0.296875q0.296875 -1.640625 1.359375 -2.546875q1.0625 -0.90625 2.65625 -0.90625q1.09375 0 2.0 0.46875q0.921875 0.46875 1.40625 1.28125q0.5 0.8125 0.5 1.71875q0 0.859375 -0.46875 1.578125q-0.46875 0.703125 -1.375 1.125q1.1875 0.28125 1.84375 1.140625q0.65625 0.859375 0.65625 2.15625q0 1.734375 -1.28125 2.953125q-1.265625 1.21875 -3.21875 1.21875q-1.765625 0 -2.921875 -1.046875q-1.15625 -1.046875 -1.328125 -2.71875zm123.25629 2.0625l0.234375 1.453125q-0.6875 0.140625 -1.234375 0.140625q-0.890625 0 -1.390625 -0.28125q-0.484375 -0.28125 -0.6875 -0.734375q-0.203125 -0.46875 -0.203125 -1.9375l0 -5.578125l-1.203125 0l0 -1.265625l1.203125 0l0 -2.390625l1.625 -0.984375l0 3.375l1.65625 0l0 1.265625l-1.65625 0l0 5.671875q0 0.6875 0.078125 0.890625q0.09375 0.203125 0.28125 0.328125q0.203125 0.109375 0.578125 0.109375q0.265625 0 0.71875 -0.0625zm6.4020386 1.46875l0 -3.203125l-5.796875 0l0 -1.5l6.09375 -8.65625l1.34375 0l0 8.65625l1.796875 0l0 1.5l-1.796875 0l0 3.203125l-1.640625 0zm0 -4.703125l0 -6.015625l-4.1875 6.015625l4.1875 0z" fill-rule="nonzero"/><path fill="#000000" fill-opacity="0.0" d="m963.0105 497.0l333.29138 0l0 42.015747l-333.29138 0z" fill-rule="evenodd"/><path fill="#000000" d="m976.823 522.45123l0.234375 1.453125q-0.6875 0.140625 -1.234375 0.140625q-0.890625 0 -1.390625 -0.28125q-0.484375 -0.28125 -0.6875 -0.734375q-0.203125 -0.46875 -0.203125 -1.9375l0 -5.578125l-1.203125 0l0 -1.265625l1.203125 0l0 -2.390625l1.625 -0.984375l0 3.375l1.65625 0l0 1.265625l-1.65625 0l0 5.671875q0 0.6875 0.078125 0.890625q0.09375 0.203125 0.28125 0.328125q0.203125 0.109375 0.578125 0.109375q0.265625 0 0.71875 -0.0625zm7.3239136 1.46875l-1.640625 0l0 -10.453125q-0.59375 0.5625 -1.5625 1.140625q-0.953125 0.5625 -1.71875 0.84375l0 -1.59375q1.375 -0.640625 2.40625 -1.5625q1.03125 -0.921875 1.453125 -1.78125l1.0625 0l0 13.40625zm65.2514 -1.46875l0.234375 1.453125q-0.6875 0.140625 -1.234375 0.140625q-0.890625 0 -1.390625 -0.28125q-0.484375 -0.28125 -0.6875 -0.734375q-0.203125 -0.46875 -0.203125 -1.9375l0 -5.578125l-1.203125 0l0 -1.265625l1.203125 0l0 -2.390625l1.625 -0.984375l0 3.375l1.65625 0l0 1.265625l-1.65625 0l0 5.671875q0 0.6875 0.078125 0.890625q0.09375 0.203125 0.28125 0.328125q0.203125 0.109375 0.578125 0.109375q0.265625 0 0.71875 -0.0625zm9.761475 -0.109375l0 1.578125l-8.828125 0q-0.015625 -0.59375 0.1875 -1.140625q0.34375 -0.90625 1.078125 -1.78125q0.75 -0.875 2.15625 -2.015625q2.171875 -1.78125 2.9375 -2.828125q0.765625 -1.046875 0.765625 -1.96875q0 -0.984375 -0.703125 -1.640625q-0.6875 -0.671875 -1.8125 -0.671875q-1.1875 0 -1.90625 0.71875q-0.703125 0.703125 -0.703125 1.953125l-1.6875 -0.171875q0.171875 -1.890625 1.296875 -2.875q1.140625 -0.984375 3.03125 -0.984375q1.921875 0 3.046875 1.0625q1.125 1.0625 1.125 2.640625q0 0.796875 -0.328125 1.578125q-0.328125 0.78125 -1.09375 1.640625q-0.75 0.84375 -2.53125 2.34375q-1.46875 1.234375 -1.890625 1.6875q-0.421875 0.4375 -0.6875 0.875l6.546875 0zm73.18054 0.109375l0.234375 1.453125q-0.6875 0.140625 -1.234375 0.140625q-0.890625 0 -1.390625 -0.28125q-0.484375 -0.28125 -0.6875 -0.734375q-0.203125 -0.46875 -0.203125 -1.9375l0 -5.578125l-1.203125 0l0 -1.265625l1.203125 0l0 -2.390625l1.625 -0.984375l0 3.375l1.65625 0l0 1.265625l-1.65625 0l0 5.671875q0 0.6875 0.078125 0.890625q0.09375 0.203125 0.28125 0.328125q0.203125 0.109375 0.578125 0.109375q0.265625 0 0.71875 -0.0625zm1.1520996 -2.0625l1.640625 -0.21875q0.28125 1.40625 0.953125 2.015625q0.6875 0.609375 1.65625 0.609375q1.15625 0 1.953125 -0.796875q0.796875 -0.796875 0.796875 -1.984375q0 -1.125 -0.734375 -1.859375q-0.734375 -0.734375 -1.875 -0.734375q-0.46875 0 -1.15625 0.171875l0.1875 -1.4375q0.15625 0.015625 0.265625 0.015625q1.046875 0 1.875 -0.546875q0.84375 -0.546875 0.84375 -1.671875q0 -0.90625 -0.609375 -1.5q-0.609375 -0.59375 -1.578125 -0.59375q-0.953125 0 -1.59375 0.609375q-0.640625 0.59375 -0.8125 1.796875l-1.640625 -0.296875q0.296875 -1.640625 1.359375 -2.546875q1.0625 -0.90625 2.65625 -0.90625q1.09375 0 2.0 0.46875q0.921875 0.46875 1.40625 1.28125q0.5 0.8125 0.5 1.71875q0 0.859375 -0.46875 1.578125q-0.46875 0.703125 -1.375 1.125q1.1875 0.28125 1.84375 1.140625q0.65625 0.859375 0.65625 2.15625q0 1.734375 -1.28125 2.953125q-1.265625 1.21875 -3.21875 1.21875q-1.765625 0 -2.921875 -1.046875q-1.15625 -1.046875 -1.328125 -2.71875zm123.256226 2.0625l0.234375 1.453125q-0.6875 0.140625 -1.234375 0.140625q-0.890625 0 -1.390625 -0.28125q-0.484375 -0.28125 -0.6875 -0.734375q-0.203125 -0.46875 -0.203125 -1.9375l0 -5.578125l-1.203125 0l0 -1.265625l1.203125 0l0 -2.390625l1.625 -0.984375l0 3.375l1.65625 0l0 1.265625l-1.65625 0l0 5.671875q0 0.6875 0.078125 0.890625q0.09375 0.203125 0.28125 0.328125q0.203125 0.109375 0.578125 0.109375q0.265625 0 0.71875 -0.0625zm6.4020996 1.46875l0 -3.203125l-5.796875 0l0 -1.5l6.09375 -8.65625l1.34375 0l0 8.65625l1.796875 0l0 1.5l-1.796875 0l0 3.203125l-1.640625 0zm0 -4.703125l0 -6.015625l-4.1875 6.015625l4.1875 0z" fill-rule="nonzero"/><path fill="#000000" fill-opacity="0.0" d="m1456.0892 162.17586l116.97644 0l0 64.62991l-116.97644 0z" fill-rule="evenodd"/><path fill="#000000" d="m1466.4486 189.09586l0 -13.359375l5.015625 0q1.53125 0 2.453125 0.40625q0.921875 0.40625 1.4375 1.25q0.53125 0.84375 0.53125 1.765625q0 0.859375 -0.46875 1.625q-0.453125 0.75 -1.390625 1.203125q1.203125 0.359375 1.859375 1.21875q0.65625 0.859375 0.65625 2.015625q0 0.9375 -0.40625 1.75q-0.390625 0.796875 -0.984375 1.234375q-0.578125 0.4375 -1.453125 0.671875q-0.875 0.21875 -2.15625 0.21875l-5.09375 0zm1.78125 -7.75l2.875 0q1.1875 0 1.6875 -0.140625q0.671875 -0.203125 1.015625 -0.671875q0.34375 -0.46875 0.34375 -1.171875q0 -0.65625 -0.328125 -1.15625q-0.3125 -0.515625 -0.90625 -0.703125q-0.59375 -0.1875 -2.03125 -0.1875l-2.65625 0l0 4.03125zm0 6.171875l3.3125 0q0.859375 0 1.203125 -0.0625q0.609375 -0.109375 1.015625 -0.359375q0.421875 -0.265625 0.6875 -0.75q0.265625 -0.484375 0.265625 -1.125q0 -0.75 -0.390625 -1.296875q-0.375 -0.546875 -1.0625 -0.765625q-0.671875 -0.234375 -1.953125 -0.234375l-3.078125 0l0 4.59375zm16.849854 0.390625q-0.921875 0.765625 -1.765625 1.09375q-0.828125 0.3125 -1.796875 0.3125q-1.59375 0 -2.453125 -0.78125q-0.859375 -0.78125 -0.859375 -1.984375q0 -0.71875 0.328125 -1.296875q0.328125 -0.59375 0.84375 -0.9375q0.53125 -0.359375 1.1875 -0.546875q0.46875 -0.125 1.453125 -0.25q1.984375 -0.234375 2.921875 -0.5625q0.015625 -0.34375 0.015625 -0.421875q0 -1.0 -0.46875 -1.421875q-0.625 -0.546875 -1.875 -0.546875q-1.15625 0 -1.703125 0.40625q-0.546875 0.40625 -0.8125 1.421875l-1.609375 -0.21875q0.21875 -1.015625 0.71875 -1.640625q0.5 -0.640625 1.453125 -0.984375q0.953125 -0.34375 2.1875 -0.34375q1.25 0 2.015625 0.296875q0.78125 0.28125 1.140625 0.734375q0.375 0.4375 0.515625 1.109375q0.078125 0.421875 0.078125 1.515625l0 2.1875q0 2.28125 0.109375 2.890625q0.109375 0.59375 0.40625 1.15625l-1.703125 0q-0.265625 -0.515625 -0.328125 -1.1875zm-0.140625 -3.671875q-0.890625 0.375 -2.671875 0.625q-1.015625 0.140625 -1.4375 0.328125q-0.421875 0.1875 -0.65625 0.53125q-0.21875 0.34375 -0.21875 0.78125q0 0.65625 0.5 1.09375q0.5 0.4375 1.453125 0.4375q0.9375 0 1.671875 -0.40625q0.75 -0.421875 1.09375 -1.140625q0.265625 -0.5625 0.265625 -1.640625l0 -0.609375zm7.7819824 3.390625l0.234375 1.453125q-0.6875 0.140625 -1.234375 0.140625q-0.890625 0 -1.390625 -0.28125q-0.484375 -0.28125 -0.6875 -0.734375q-0.203125 -0.46875 -0.203125 -1.9375l0 -5.578125l-1.203125 0l0 -1.265625l1.203125 0l0 -2.390625l1.625 -0.984375l0 3.375l1.65625 0l0 1.265625l-1.65625 0l0 5.671875q0 0.6875 0.078125 0.890625q0.09375 0.203125 0.28125 0.328125q0.203125 0.109375 0.578125 0.109375q0.265625 0 0.71875 -0.0625zm7.9176025 -2.078125l1.609375 0.21875q-0.265625 1.65625 -1.359375 2.609375q-1.078125 0.9375 -2.671875 0.9375q-1.984375 0 -3.1875 -1.296875q-1.203125 -1.296875 -1.203125 -3.71875q0 -1.578125 0.515625 -2.75q0.515625 -1.171875 1.578125 -1.75q1.0625 -0.59375 2.3125 -0.59375q1.578125 0 2.578125 0.796875q1.0 0.796875 1.28125 2.265625l-1.59375 0.234375q-0.234375 -0.96875 -0.8125 -1.453125q-0.578125 -0.5 -1.390625 -0.5q-1.234375 0 -2.015625 0.890625q-0.78125 0.890625 -0.78125 2.8125q0 1.953125 0.75 2.84375q0.75 0.875 1.953125 0.875q0.96875 0 1.609375 -0.59375q0.65625 -0.59375 0.828125 -1.828125zm3.015625 3.546875l0 -13.359375l1.640625 0l0 4.796875q1.140625 -1.328125 2.890625 -1.328125q1.078125 0 1.859375 0.421875q0.796875 0.421875 1.140625 1.171875q0.34375 0.75 0.34375 2.171875l0 6.125l-1.640625 0l0 -6.125q0 -1.234375 -0.53125 -1.796875q-0.53125 -0.5625 -1.515625 -0.5625q-0.71875 0 -1.359375 0.390625q-0.640625 0.375 -0.921875 1.015625q-0.265625 0.640625 -0.265625 1.78125l0 5.296875l-1.640625 0z" fill-rule="nonzero"/><path fill="#000000" d="m1469.4486 215.41772q-1.359375 -1.703125 -2.296875 -4.0q-0.9375 -2.296875 -0.9375 -4.765625q0 -2.15625 0.703125 -4.140625q0.828125 -2.3125 2.53125 -4.59375l1.171875 0q-1.09375 1.890625 -1.453125 2.703125q-0.546875 1.25 -0.875 2.625q-0.390625 1.703125 -0.390625 3.421875q0 4.375 2.71875 8.75l-1.171875 0zm7.8845215 -3.921875l0 -3.203125l-5.796875 0l0 -1.5l6.09375 -8.65625l1.34375 0l0 8.65625l1.796875 0l0 1.5l-1.796875 0l0 3.203125l-1.640625 0zm0 -4.703125l0 -6.015625l-4.1875 6.015625l4.1875 0zm17.090332 4.703125l0 -1.421875q-1.125 1.640625 -3.0625 1.640625q-0.859375 0 -1.609375 -0.328125q-0.734375 -0.328125 -1.09375 -0.828125q-0.359375 -0.5 -0.5 -1.21875q-0.109375 -0.46875 -0.109375 -1.53125l0 -5.984375l1.640625 0l0 5.359375q0 1.28125 0.109375 1.734375q0.15625 0.640625 0.65625 1.015625q0.5 0.375 1.234375 0.375q0.734375 0 1.375 -0.375q0.65625 -0.390625 0.921875 -1.03125q0.265625 -0.65625 0.265625 -1.890625l0 -5.1875l1.640625 0l0 9.671875l-1.46875 0zm4.0476074 3.703125l0 -13.375l1.484375 0l0 1.25q0.53125 -0.734375 1.1875 -1.09375q0.671875 -0.375 1.625 -0.375q1.234375 0 2.171875 0.640625q0.953125 0.625 1.4375 1.796875q0.484375 1.15625 0.484375 2.546875q0 1.484375 -0.53125 2.671875q-0.53125 1.1875 -1.546875 1.828125q-1.015625 0.625 -2.140625 0.625q-0.8125 0 -1.46875 -0.34375q-0.65625 -0.34375 -1.0625 -0.875l0 4.703125l-1.640625 0zm1.484375 -8.484375q0 1.859375 0.75 2.765625q0.765625 0.890625 1.828125 0.890625q1.09375 0 1.875 -0.921875q0.78125 -0.9375 0.78125 -2.875q0 -1.84375 -0.765625 -2.765625q-0.75 -0.921875 -1.8125 -0.921875q-1.046875 0 -1.859375 0.984375q-0.796875 0.96875 -0.796875 2.84375zm15.156982 4.78125l0 -1.21875q-0.90625 1.4375 -2.703125 1.4375q-1.15625 0 -2.125 -0.640625q-0.96875 -0.640625 -1.5 -1.78125q-0.53125 -1.140625 -0.53125 -2.625q0 -1.453125 0.484375 -2.625q0.484375 -1.1875 1.4375 -1.8125q0.96875 -0.625 2.171875 -0.625q0.875 0 1.546875 0.375q0.6875 0.359375 1.109375 0.953125l0 -4.796875l1.640625 0l0 13.359375l-1.53125 0zm-5.171875 -4.828125q0 1.859375 0.78125 2.78125q0.78125 0.921875 1.84375 0.921875q1.078125 0 1.828125 -0.875q0.75 -0.890625 0.75 -2.6875q0 -1.984375 -0.765625 -2.90625q-0.765625 -0.9375 -1.890625 -0.9375q-1.078125 0 -1.8125 0.890625q-0.734375 0.890625 -0.734375 2.8125zm15.59436 3.640625q-0.921875 0.765625 -1.765625 1.09375q-0.828125 0.3125 -1.796875 0.3125q-1.59375 0 -2.453125 -0.78125q-0.859375 -0.78125 -0.859375 -1.984375q0 -0.71875 0.328125 -1.296875q0.328125 -0.59375 0.84375 -0.9375q0.53125 -0.359375 1.1875 -0.546875q0.46875 -0.125 1.453125 -0.25q1.984375 -0.234375 2.921875 -0.5625q0.015625 -0.34375 0.015625 -0.421875q0 -1.0 -0.46875 -1.421875q-0.625 -0.546875 -1.875 -0.546875q-1.15625 0 -1.703125 0.40625q-0.546875 0.40625 -0.8125 1.421875l-1.609375 -0.21875q0.21875 -1.015625 0.71875 -1.640625q0.5 -0.640625 1.453125 -0.984375q0.953125 -0.34375 2.1875 -0.34375q1.25 0 2.015625 0.296875q0.78125 0.28125 1.140625 0.734375q0.375 0.4375 0.515625 1.109375q0.078125 0.421875 0.078125 1.515625l0 2.1875q0 2.28125 0.109375 2.890625q0.109375 0.59375 0.40625 1.15625l-1.703125 0q-0.265625 -0.515625 -0.328125 -1.1875zm-0.140625 -3.671875q-0.890625 0.375 -2.671875 0.625q-1.015625 0.140625 -1.4375 0.328125q-0.421875 0.1875 -0.65625 0.53125q-0.21875 0.34375 -0.21875 0.78125q0 0.65625 0.5 1.09375q0.5 0.4375 1.453125 0.4375q0.9375 0 1.671875 -0.40625q0.75 -0.421875 1.09375 -1.140625q0.265625 -0.5625 0.265625 -1.640625l0 -0.609375zm7.7819824 3.390625l0.234375 1.453125q-0.6875 0.140625 -1.234375 0.140625q-0.890625 0 -1.390625 -0.28125q-0.484375 -0.28125 -0.6875 -0.734375q-0.203125 -0.46875 -0.203125 -1.9375l0 -5.578125l-1.203125 0l0 -1.265625l1.203125 0l0 -2.390625l1.625 -0.984375l0 3.375l1.65625 0l0 1.265625l-1.65625 0l0 5.671875q0 0.6875 0.078125 0.890625q0.09375 0.203125 0.28125 0.328125q0.203125 0.109375 0.578125 0.109375q0.265625 0 0.71875 -0.0625zm8.230225 -1.640625l1.6875 0.203125q-0.40625 1.484375 -1.484375 2.3125q-1.078125 0.8125 -2.765625 0.8125q-2.125 0 -3.375 -1.296875q-1.234375 -1.3125 -1.234375 -3.671875q0 -2.453125 1.25 -3.796875q1.265625 -1.34375 3.265625 -1.34375q1.9375 0 3.15625 1.328125q1.234375 1.3125 1.234375 3.703125q0 0.15625 0 0.4375l-7.21875 0q0.09375 1.59375 0.90625 2.453125q0.8125 0.84375 2.015625 0.84375q0.90625 0 1.546875 -0.46875q0.640625 -0.484375 1.015625 -1.515625zm-5.390625 -2.65625l5.40625 0q-0.109375 -1.21875 -0.625 -1.828125q-0.78125 -0.953125 -2.03125 -0.953125q-1.125 0 -1.90625 0.765625q-0.765625 0.75 -0.84375 2.015625zm8.485107 2.875l1.625 -0.25q0.125 0.96875 0.75 1.5q0.625 0.515625 1.75 0.515625q1.125 0 1.671875 -0.453125q0.546875 -0.46875 0.546875 -1.09375q0 -0.546875 -0.484375 -0.875q-0.328125 -0.21875 -1.671875 -0.546875q-1.8125 -0.46875 -2.515625 -0.796875q-0.6875 -0.328125 -1.046875 -0.90625q-0.359375 -0.59375 -0.359375 -1.3125q0 -0.640625 0.296875 -1.1875q0.296875 -0.5625 0.8125 -0.921875q0.375 -0.28125 1.03125 -0.46875q0.671875 -0.203125 1.421875 -0.203125q1.140625 0 2.0 0.328125q0.859375 0.328125 1.265625 0.890625q0.421875 0.5625 0.578125 1.5l-1.609375 0.21875q-0.109375 -0.75 -0.640625 -1.171875q-0.515625 -0.421875 -1.46875 -0.421875q-1.140625 0 -1.625 0.375q-0.46875 0.375 -0.46875 0.875q0 0.3125 0.1875 0.578125q0.203125 0.265625 0.640625 0.4375q0.234375 0.09375 1.4375 0.421875q1.75 0.453125 2.4375 0.75q0.6875 0.296875 1.078125 0.859375q0.390625 0.5625 0.390625 1.40625q0 0.828125 -0.484375 1.546875q-0.46875 0.71875 -1.375 1.125q-0.90625 0.390625 -2.046875 0.390625q-1.875 0 -2.875 -0.78125q-0.984375 -0.78125 -1.25 -2.328125zm11.0625 6.8125l-1.1875 0q2.734375 -4.375 2.734375 -8.75q0 -1.71875 -0.390625 -3.390625q-0.3125 -1.375 -0.875 -2.625q-0.359375 -0.828125 -1.46875 -2.734375l1.1875 0q1.703125 2.28125 2.53125 4.59375q0.6875 1.984375 0.6875 4.140625q0 2.46875 -0.9375 4.765625q-0.9375 2.296875 -2.28125 4.0z" fill-rule="nonzero"/><path fill="#000000" fill-opacity="0.0" d="m544.0 141.22348l0 0c0 -10.616837 8.606628 -19.22348 19.22351 -19.22348l176.26166 0c5.0983887 0 9.987976 2.025322 13.593079 5.6304245c3.6051025 3.6051102 5.630432 8.494667 5.630432 13.593056l0 76.89162c0 10.616837 -8.606689 19.22348 -19.22351 19.22348l-176.26166 0c-10.616882 0 -19.22351 -8.606644 -19.22351 -19.22348z" fill-rule="evenodd"/><path stroke="#000000" stroke-width="1.0" stroke-linejoin="round" stroke-linecap="butt" d="m544.0 141.22348l0 0c0 -10.616837 8.606628 -19.22348 19.22351 -19.22348l176.26166 0c5.0983887 0 9.987976 2.025322 13.593079 5.6304245c3.6051025 3.6051102 5.630432 8.494667 5.630432 13.593056l0 76.89162c0 10.616837 -8.606689 19.22348 -19.22351 19.22348l-176.26166 0c-10.616882 0 -19.22351 -8.606644 -19.22351 -19.22348z" fill-rule="evenodd"/><path fill="#000000" d="m563.33856 147.14961l0 0c0 -5.940323 5.302124 -10.755905 11.842529 -10.755905l0 0c6.5404663 0 11.842529 4.8155823 11.842529 10.755905l0 0c0 5.940323 -5.302063 10.755905 -11.842529 10.755905l0 0c-6.5404053 0 -11.842529 -4.8155823 -11.842529 -10.755905z" fill-rule="evenodd"/><path stroke="#000000" stroke-width="1.0" stroke-linejoin="round" stroke-linecap="butt" d="m563.33856 147.14961l0 0c0 -5.940323 5.302124 -10.755905 11.842529 -10.755905l0 0c6.5404663 0 11.842529 4.8155823 11.842529 10.755905l0 0c0 5.940323 -5.302063 10.755905 -11.842529 10.755905l0 0c-6.5404053 0 -11.842529 -4.8155823 -11.842529 -10.755905z" fill-rule="evenodd"/><path fill="#000000" fill-opacity="0.0" d="m647.85565 123.01312l110.86615 0l0 42.015747l-110.86615 0z" fill-rule="evenodd"/><path fill="#000000" d="m658.3244 149.93312l0 -13.359375l9.65625 0l0 1.578125l-7.875 0l0 4.09375l7.375 0l0 1.5625l-7.375 0l0 4.546875l8.1875 0l0 1.578125l-9.96875 0zm14.8966675 0l-3.6875 -9.671875l1.734375 0l2.078125 5.796875q0.328125 0.9375 0.625 1.9375q0.203125 -0.765625 0.609375 -1.828125l2.140625 -5.90625l1.6875 0l-3.65625 9.671875l-1.53125 0zm13.265625 -3.109375l1.6875 0.203125q-0.40625 1.484375 -1.484375 2.3125q-1.078125 0.8125 -2.765625 0.8125q-2.125 0 -3.375 -1.296875q-1.234375 -1.3125 -1.234375 -3.671875q0 -2.453125 1.25 -3.796875q1.265625 -1.34375 3.265625 -1.34375q1.9375 0 3.15625 1.328125q1.234375 1.3125 1.234375 3.703125q0 0.15625 0 0.4375l-7.21875 0q0.09375 1.59375 0.90625 2.453125q0.8125 0.84375 2.015625 0.84375q0.90625 0 1.546875 -0.46875q0.640625 -0.484375 1.015625 -1.515625zm-5.390625 -2.65625l5.40625 0q-0.109375 -1.21875 -0.625 -1.828125q-0.78125 -0.953125 -2.03125 -0.953125q-1.125 0 -1.90625 0.765625q-0.765625 0.75 -0.84375 2.015625zm9.141357 5.765625l0 -9.671875l1.46875 0l0 1.375q1.0625 -1.59375 3.078125 -1.59375q0.875 0 1.609375 0.3125q0.734375 0.3125 1.09375 0.828125q0.375 0.5 0.515625 1.203125q0.09375 0.453125 0.09375 1.59375l0 5.953125l-1.640625 0l0 -5.890625q0 -1.0 -0.203125 -1.484375q-0.1875 -0.5 -0.671875 -0.796875q-0.484375 -0.296875 -1.140625 -0.296875q-1.046875 0 -1.8125 0.671875q-0.75 0.65625 -0.75 2.515625l0 5.28125l-1.640625 0zm13.953857 -1.46875l0.234375 1.453125q-0.6875 0.140625 -1.234375 0.140625q-0.890625 0 -1.390625 -0.28125q-0.484375 -0.28125 -0.6875 -0.734375q-0.203125 -0.46875 -0.203125 -1.9375l0 -5.578125l-1.203125 0l0 -1.265625l1.203125 0l0 -2.390625l1.625 -0.984375l0 3.375l1.65625 0l0 1.265625l-1.65625 0l0 5.671875q0 0.6875 0.078125 0.890625q0.09375 0.203125 0.28125 0.328125q0.203125 0.109375 0.578125 0.109375q0.265625 0 0.71875 -0.0625z" fill-rule="nonzero"/><path fill="#000000" fill-opacity="0.0" d="m563.33856 181.05263l0 0c0 -3.867508 3.135254 -7.002762 7.0028076 -7.002762l66.71887 0c1.8572388 0 3.6384277 0.73779297 4.95166 2.0510712c1.3132935 1.3132629 2.0510864 3.094452 2.0510864 4.9516907l0 28.010223c0 3.8675232 -3.135254 7.002762 -7.0027466 7.002762l-66.71887 0c-3.8675537 0 -7.0028076 -3.1352386 -7.0028076 -7.002762z" fill-rule="evenodd"/><path stroke="#000000" stroke-width="1.0" stroke-linejoin="round" stroke-linecap="butt" stroke-dasharray="8.0,3.0" d="m563.33856 181.05263l0 0c0 -3.867508 3.135254 -7.002762 7.0028076 -7.002762l66.71887 0c1.8572388 0 3.6384277 0.73779297 4.95166 2.0510712c1.3132935 1.3132629 2.0510864 3.094452 2.0510864 4.9516907l0 28.010223c0 3.8675232 -3.135254 7.002762 -7.0027466 7.002762l-66.71887 0c-3.8675537 0 -7.0028076 -3.1352386 -7.0028076 -7.002762z" fill-rule="evenodd"/><path fill="#000000" fill-opacity="0.0" d="m648.08923 162.17586l116.97638 0l0 64.62991l-116.97638 0z" fill-rule="evenodd"/><path fill="#000000" d="m658.4486 189.09586l0 -13.359375l5.015625 0q1.53125 0 2.453125 0.40625q0.921875 0.40625 1.4375 1.25q0.53125 0.84375 0.53125 1.765625q0 0.859375 -0.46875 1.625q-0.453125 0.75 -1.390625 1.203125q1.203125 0.359375 1.859375 1.21875q0.65625 0.859375 0.65625 2.015625q0 0.9375 -0.40625 1.75q-0.390625 0.796875 -0.984375 1.234375q-0.578125 0.4375 -1.453125 0.671875q-0.875 0.21875 -2.15625 0.21875l-5.09375 0zm1.78125 -7.75l2.875 0q1.1875 0 1.6875 -0.140625q0.671875 -0.203125 1.015625 -0.671875q0.34375 -0.46875 0.34375 -1.171875q0 -0.65625 -0.328125 -1.15625q-0.3125 -0.515625 -0.90625 -0.703125q-0.59375 -0.1875 -2.03125 -0.1875l-2.65625 0l0 4.03125zm0 6.171875l3.3125 0q0.859375 0 1.203125 -0.0625q0.609375 -0.109375 1.015625 -0.359375q0.421875 -0.265625 0.6875 -0.75q0.265625 -0.484375 0.265625 -1.125q0 -0.75 -0.390625 -1.296875q-0.375 -0.546875 -1.0625 -0.765625q-0.671875 -0.234375 -1.953125 -0.234375l-3.078125 0l0 4.59375zm16.849854 0.390625q-0.921875 0.765625 -1.765625 1.09375q-0.828125 0.3125 -1.796875 0.3125q-1.59375 0 -2.453125 -0.78125q-0.859375 -0.78125 -0.859375 -1.984375q0 -0.71875 0.328125 -1.296875q0.328125 -0.59375 0.84375 -0.9375q0.53125 -0.359375 1.1875 -0.546875q0.46875 -0.125 1.453125 -0.25q1.984375 -0.234375 2.921875 -0.5625q0.015625 -0.34375 0.015625 -0.421875q0 -1.0 -0.46875 -1.421875q-0.625 -0.546875 -1.875 -0.546875q-1.15625 0 -1.703125 0.40625q-0.546875 0.40625 -0.8125 1.421875l-1.609375 -0.21875q0.21875 -1.015625 0.71875 -1.640625q0.5 -0.640625 1.453125 -0.984375q0.953125 -0.34375 2.1875 -0.34375q1.25 0 2.015625 0.296875q0.78125 0.28125 1.140625 0.734375q0.375 0.4375 0.515625 1.109375q0.078125 0.421875 0.078125 1.515625l0 2.1875q0 2.28125 0.109375 2.890625q0.109375 0.59375 0.40625 1.15625l-1.703125 0q-0.265625 -0.515625 -0.328125 -1.1875zm-0.140625 -3.671875q-0.890625 0.375 -2.671875 0.625q-1.015625 0.140625 -1.4375 0.328125q-0.421875 0.1875 -0.65625 0.53125q-0.21875 0.34375 -0.21875 0.78125q0 0.65625 0.5 1.09375q0.5 0.4375 1.453125 0.4375q0.9375 0 1.671875 -0.40625q0.75 -0.421875 1.09375 -1.140625q0.265625 -0.5625 0.265625 -1.640625l0 -0.609375zm7.7819214 3.390625l0.234375 1.453125q-0.6875 0.140625 -1.234375 0.140625q-0.890625 0 -1.390625 -0.28125q-0.484375 -0.28125 -0.6875 -0.734375q-0.203125 -0.46875 -0.203125 -1.9375l0 -5.578125l-1.203125 0l0 -1.265625l1.203125 0l0 -2.390625l1.625 -0.984375l0 3.375l1.65625 0l0 1.265625l-1.65625 0l0 5.671875q0 0.6875 0.078125 0.890625q0.09375 0.203125 0.28125 0.328125q0.203125 0.109375 0.578125 0.109375q0.265625 0 0.71875 -0.0625zm7.9177246 -2.078125l1.609375 0.21875q-0.265625 1.65625 -1.359375 2.609375q-1.078125 0.9375 -2.671875 0.9375q-1.984375 0 -3.1875 -1.296875q-1.203125 -1.296875 -1.203125 -3.71875q0 -1.578125 0.515625 -2.75q0.515625 -1.171875 1.578125 -1.75q1.0625 -0.59375 2.3125 -0.59375q1.578125 0 2.578125 0.796875q1.0 0.796875 1.28125 2.265625l-1.59375 0.234375q-0.234375 -0.96875 -0.8125 -1.453125q-0.578125 -0.5 -1.390625 -0.5q-1.234375 0 -2.015625 0.890625q-0.78125 0.890625 -0.78125 2.8125q0 1.953125 0.75 2.84375q0.75 0.875 1.953125 0.875q0.96875 0 1.609375 -0.59375q0.65625 -0.59375 0.828125 -1.828125zm3.015625 3.546875l0 -13.359375l1.640625 0l0 4.796875q1.140625 -1.328125 2.890625 -1.328125q1.078125 0 1.859375 0.421875q0.796875 0.421875 1.140625 1.171875q0.34375 0.75 0.34375 2.171875l0 6.125l-1.640625 0l0 -6.125q0 -1.234375 -0.53125 -1.796875q-0.53125 -0.5625 -1.515625 -0.5625q-0.71875 0 -1.359375 0.390625q-0.640625 0.375 -0.921875 1.015625q-0.265625 0.640625 -0.265625 1.78125l0 5.296875l-1.640625 0z" fill-rule="nonzero"/><path fill="#000000" d="m661.4486 215.41772q-1.359375 -1.703125 -2.296875 -4.0q-0.9375 -2.296875 -0.9375 -4.765625q0 -2.15625 0.703125 -4.140625q0.828125 -2.3125 2.53125 -4.59375l1.171875 0q-1.09375 1.890625 -1.453125 2.703125q-0.546875 1.25 -0.875 2.625q-0.390625 1.703125 -0.390625 3.421875q0 4.375 2.71875 8.75l-1.171875 0zm7.8845825 -3.921875l0 -3.203125l-5.796875 0l0 -1.5l6.09375 -8.65625l1.34375 0l0 8.65625l1.796875 0l0 1.5l-1.796875 0l0 3.203125l-1.640625 0zm0 -4.703125l0 -6.015625l-4.1875 6.015625l4.1875 0zm17.090271 4.703125l0 -1.421875q-1.125 1.640625 -3.0625 1.640625q-0.859375 0 -1.609375 -0.328125q-0.734375 -0.328125 -1.09375 -0.828125q-0.359375 -0.5 -0.5 -1.21875q-0.109375 -0.46875 -0.109375 -1.53125l0 -5.984375l1.640625 0l0 5.359375q0 1.28125 0.109375 1.734375q0.15625 0.640625 0.65625 1.015625q0.5 0.375 1.234375 0.375q0.734375 0 1.375 -0.375q0.65625 -0.390625 0.921875 -1.03125q0.265625 -0.65625 0.265625 -1.890625l0 -5.1875l1.640625 0l0 9.671875l-1.46875 0zm4.0475464 3.703125l0 -13.375l1.484375 0l0 1.25q0.53125 -0.734375 1.1875 -1.09375q0.671875 -0.375 1.625 -0.375q1.234375 0 2.171875 0.640625q0.953125 0.625 1.4375 1.796875q0.484375 1.15625 0.484375 2.546875q0 1.484375 -0.53125 2.671875q-0.53125 1.1875 -1.546875 1.828125q-1.015625 0.625 -2.140625 0.625q-0.8125 0 -1.46875 -0.34375q-0.65625 -0.34375 -1.0625 -0.875l0 4.703125l-1.640625 0zm1.484375 -8.484375q0 1.859375 0.75 2.765625q0.765625 0.890625 1.828125 0.890625q1.09375 0 1.875 -0.921875q0.78125 -0.9375 0.78125 -2.875q0 -1.84375 -0.765625 -2.765625q-0.75 -0.921875 -1.8125 -0.921875q-1.046875 0 -1.859375 0.984375q-0.796875 0.96875 -0.796875 2.84375zm15.156982 4.78125l0 -1.21875q-0.90625 1.4375 -2.703125 1.4375q-1.15625 0 -2.125 -0.640625q-0.96875 -0.640625 -1.5 -1.78125q-0.53125 -1.140625 -0.53125 -2.625q0 -1.453125 0.484375 -2.625q0.484375 -1.1875 1.4375 -1.8125q0.96875 -0.625 2.171875 -0.625q0.875 0 1.546875 0.375q0.6875 0.359375 1.109375 0.953125l0 -4.796875l1.640625 0l0 13.359375l-1.53125 0zm-5.171875 -4.828125q0 1.859375 0.78125 2.78125q0.78125 0.921875 1.84375 0.921875q1.078125 0 1.828125 -0.875q0.75 -0.890625 0.75 -2.6875q0 -1.984375 -0.765625 -2.90625q-0.765625 -0.9375 -1.890625 -0.9375q-1.078125 0 -1.8125 0.890625q-0.734375 0.890625 -0.734375 2.8125zm15.594482 3.640625q-0.921875 0.765625 -1.765625 1.09375q-0.828125 0.3125 -1.796875 0.3125q-1.59375 0 -2.453125 -0.78125q-0.859375 -0.78125 -0.859375 -1.984375q0 -0.71875 0.328125 -1.296875q0.328125 -0.59375 0.84375 -0.9375q0.53125 -0.359375 1.1875 -0.546875q0.46875 -0.125 1.453125 -0.25q1.984375 -0.234375 2.921875 -0.5625q0.015625 -0.34375 0.015625 -0.421875q0 -1.0 -0.46875 -1.421875q-0.625 -0.546875 -1.875 -0.546875q-1.15625 0 -1.703125 0.40625q-0.546875 0.40625 -0.8125 1.421875l-1.609375 -0.21875q0.21875 -1.015625 0.71875 -1.640625q0.5 -0.640625 1.453125 -0.984375q0.953125 -0.34375 2.1875 -0.34375q1.25 0 2.015625 0.296875q0.78125 0.28125 1.140625 0.734375q0.375 0.4375 0.515625 1.109375q0.078125 0.421875 0.078125 1.515625l0 2.1875q0 2.28125 0.109375 2.890625q0.109375 0.59375 0.40625 1.15625l-1.703125 0q-0.265625 -0.515625 -0.328125 -1.1875zm-0.140625 -3.671875q-0.890625 0.375 -2.671875 0.625q-1.015625 0.140625 -1.4375 0.328125q-0.421875 0.1875 -0.65625 0.53125q-0.21875 0.34375 -0.21875 0.78125q0 0.65625 0.5 1.09375q0.5 0.4375 1.453125 0.4375q0.9375 0 1.671875 -0.40625q0.75 -0.421875 1.09375 -1.140625q0.265625 -0.5625 0.265625 -1.640625l0 -0.609375zm7.7819824 3.390625l0.234375 1.453125q-0.6875 0.140625 -1.234375 0.140625q-0.890625 0 -1.390625 -0.28125q-0.484375 -0.28125 -0.6875 -0.734375q-0.203125 -0.46875 -0.203125 -1.9375l0 -5.578125l-1.203125 0l0 -1.265625l1.203125 0l0 -2.390625l1.625 -0.984375l0 3.375l1.65625 0l0 1.265625l-1.65625 0l0 5.671875q0 0.6875 0.078125 0.890625q0.09375 0.203125 0.28125 0.328125q0.203125 0.109375 0.578125 0.109375q0.265625 0 0.71875 -0.0625zm8.230164 -1.640625l1.6875 0.203125q-0.40625 1.484375 -1.484375 2.3125q-1.078125 0.8125 -2.765625 0.8125q-2.125 0 -3.375 -1.296875q-1.234375 -1.3125 -1.234375 -3.671875q0 -2.453125 1.25 -3.796875q1.265625 -1.34375 3.265625 -1.34375q1.9375 0 3.15625 1.328125q1.234375 1.3125 1.234375 3.703125q0 0.15625 0 0.4375l-7.21875 0q0.09375 1.59375 0.90625 2.453125q0.8125 0.84375 2.015625 0.84375q0.90625 0 1.546875 -0.46875q0.640625 -0.484375 1.015625 -1.515625zm-5.390625 -2.65625l5.40625 0q-0.109375 -1.21875 -0.625 -1.828125q-0.78125 -0.953125 -2.03125 -0.953125q-1.125 0 -1.90625 0.765625q-0.765625 0.75 -0.84375 2.015625zm8.485107 2.875l1.625 -0.25q0.125 0.96875 0.75 1.5q0.625 0.515625 1.75 0.515625q1.125 0 1.671875 -0.453125q0.546875 -0.46875 0.546875 -1.09375q0 -0.546875 -0.484375 -0.875q-0.328125 -0.21875 -1.671875 -0.546875q-1.8125 -0.46875 -2.515625 -0.796875q-0.6875 -0.328125 -1.046875 -0.90625q-0.359375 -0.59375 -0.359375 -1.3125q0 -0.640625 0.296875 -1.1875q0.296875 -0.5625 0.8125 -0.921875q0.375 -0.28125 1.03125 -0.46875q0.671875 -0.203125 1.421875 -0.203125q1.140625 0 2.0 0.328125q0.859375 0.328125 1.265625 0.890625q0.421875 0.5625 0.578125 1.5l-1.609375 0.21875q-0.109375 -0.75 -0.640625 -1.171875q-0.515625 -0.421875 -1.46875 -0.421875q-1.140625 0 -1.625 0.375q-0.46875 0.375 -0.46875 0.875q0 0.3125 0.1875 0.578125q0.203125 0.265625 0.640625 0.4375q0.234375 0.09375 1.4375 0.421875q1.75 0.453125 2.4375 0.75q0.6875 0.296875 1.078125 0.859375q0.390625 0.5625 0.390625 1.40625q0 0.828125 -0.484375 1.546875q-0.46875 0.71875 -1.375 1.125q-0.90625 0.390625 -2.046875 0.390625q-1.875 0 -2.875 -0.78125q-0.984375 -0.78125 -1.25 -2.328125zm11.0625 6.8125l-1.1875 0q2.734375 -4.375 2.734375 -8.75q0 -1.71875 -0.390625 -3.390625q-0.3125 -1.375 -0.875 -2.625q-0.359375 -0.828125 -1.46875 -2.734375l1.1875 0q1.703125 2.28125 2.53125 4.59375q0.6875 1.984375 0.6875 4.140625q0 2.46875 -0.9375 4.765625q-0.9375 2.296875 -2.28125 4.0z" fill-rule="nonzero"/></g></svg>